<?xml version="1.0" encoding="utf-8"?>
<!-- Generator: Adobe Illustrator 23.0.4, SVG Export Plug-In . SVG Version: 6.00 Build 0)  -->
<svg version="1.1" id="圖層_1" xmlns="http://www.w3.org/2000/svg" xmlns:xlink="http://www.w3.org/1999/xlink" x="0px" y="0px"
	 viewBox="0 0 143.5 26.1" style="enable-background:new 0 0 143.5 26.1;" xml:space="preserve">
<style type="text/css">
	.st0{fill:#D70738;}
	.st1{fill:#0B203D;}
</style>
<g>
	<g>
		<path class="st0" d="M5.9,14.8l-1.4,5.1H0L6,0.4h5.7l6.2,19.5h-4.7l-1.5-5.1H5.9z M11,11.6L9.7,7.4C9.4,6.2,9,4.8,8.7,3.7H8.6
			C8.3,4.8,8,6.3,7.7,7.4l-1.2,4.2H11z"/>
		<path class="st0" d="M24.9,0.4v19.5h-4.3V0.4H24.9z"/>
		<path class="st0" d="M33.2,14.8l-1.4,5.1h-4.5l6-19.5H39l6.2,19.5h-4.7L39,14.8H33.2z M38.3,11.6L37,7.4c-0.3-1.2-0.7-2.6-1-3.7
			l0,0c-0.3,1.1-0.6,2.6-0.9,3.7l-1.2,4.2H38.3z"/>
		<path class="st1" d="M53.9,15.4c1.2,0.6,3,1.2,4.9,1.2c2.1,0,3.2-0.9,3.2-2.2c0-1.2-0.9-1.9-3.3-2.8c-3.3-1.1-5.4-2.9-5.4-5.8
			c0-3.3,2.8-5.8,7.4-5.8c2.2,0,3.9,0.4,5,1l-1,3.5c-0.8-0.4-2.2-0.9-4.1-0.9c-2,0-2.9,0.9-2.9,1.9c0,1.3,1.1,1.8,3.6,2.8
			c3.5,1.3,5.1,3.1,5.1,5.8c0,3.2-2.5,6-7.9,6c-2.2,0-4.4-0.6-5.5-1.2L53.9,15.4z"/>
		<path class="st1" d="M72.1,5.7l2.2,7c0.2,0.8,0.5,1.9,0.7,2.6h0.1c0.2-0.8,0.4-1.8,0.6-2.7l1.8-7h4.6l-3.3,9.3
			c-2.1,5.7-3.4,7.9-5,9.3c-1.5,1.3-3.1,1.8-4.2,1.9l-0.9-3.7c0.6-0.1,1.2-0.4,1.9-0.8c0.7-0.4,1.4-1.1,1.8-1.8
			c0.1-0.2,0.2-0.4,0.2-0.6c0-0.2,0-0.4-0.2-0.7L67.2,5.6L72.1,5.7L72.1,5.7z"/>
		<path class="st1" d="M83.5,16.1c0.8,0.5,2.5,1.1,3.8,1.1c1.4,0,1.9-0.5,1.9-1.2c0-0.8-0.5-1.1-2.1-1.7c-2.9-1-4.1-2.5-4.1-4.2
			c0-2.6,2.2-4.6,5.7-4.6c1.7,0,3.1,0.4,4,0.8l-0.8,3C91.3,9,90,8.5,88.8,8.5c-1.1,0-1.7,0.4-1.7,1.2c0,0.7,0.6,1.1,2.3,1.7
			c2.7,0.9,3.8,2.3,3.9,4.4c0,2.6-2.1,4.6-6.1,4.6c-1.9,0-3.5-0.4-4.6-1L83.5,16.1z"/>
		<path class="st1" d="M101,1.7v4h3.2v3.2H101v5.2c0,1.7,0.4,2.5,1.8,2.5c0.6,0,1-0.1,1.3-0.1v3.3c-0.6,0.2-1.6,0.4-2.8,0.4
			c-1.4,0-2.6-0.5-3.3-1.2c-0.8-0.8-1.2-2.2-1.2-4.2V9h-1.9V5.8h1.9V2.7L101,1.7z"/>
		<path class="st1" d="M109.9,14.2c0.1,1.9,2,2.8,4.1,2.8c1.5,0,2.7-0.2,3.9-0.6l0.6,2.9c-1.5,0.6-3.2,0.9-5.1,0.9
			c-4.8,0-7.6-2.8-7.6-7.2c0-3.6,2.2-7.6,7.2-7.6c4.6,0,6.3,3.6,6.3,7.1c0,0.7-0.1,1.4-0.2,1.7C119.1,14.2,109.9,14.2,109.9,14.2z
			 M115.3,11.2c0-1.1-0.5-2.9-2.5-2.9c-1.9,0-2.7,1.7-2.8,2.9H115.3z"/>
		<path class="st1" d="M122,10.2c0-1.8-0.1-3.2-0.1-4.5h3.7l0.2,1.9h0.1c0.6-0.9,1.9-2.3,4.3-2.3c1.8,0,3.3,1,3.9,2.5h0.1
			c0.5-0.8,1.2-1.3,1.8-1.7c0.8-0.5,1.6-0.7,2.7-0.7c2.7,0,4.8,1.9,4.8,6.2v8.3h-4.2v-7.7c0-2.1-0.7-3.3-2.2-3.3
			c-1.1,0-1.8,0.7-2.1,1.6c-0.1,0.3-0.2,0.8-0.2,1.1v8.3h-4.2V12c0-1.8-0.7-3.1-2.1-3.1c-1.2,0-1.9,0.9-2.1,1.6
			c-0.1,0.3-0.2,0.8-0.2,1.1v8.2H122V10.2z"/>
	</g>
</g>
</svg>
