<?xml version="1.0" encoding="utf-8"?>
<!-- Generator: Adobe Illustrator 24.2.3, SVG Export Plug-In . SVG Version: 6.00 Build 0)  -->
<svg version="1.1" id="圖層_1" xmlns="http://www.w3.org/2000/svg" xmlns:xlink="http://www.w3.org/1999/xlink" x="0px" y="0px"
	 viewBox="0 0 280 88" style="enable-background:new 0 0 280 88;" xml:space="preserve">
<g>
	<path d="M39,82.3C39,82.3,39,82.3,39,82.3c-4,0-7.7-2.5-10.9-7.1c3,3.9,6.6,6,10.4,6.1c0,0,0,0,0.1,0c7,0,13.4-7.3,16.8-19.2
		l-1-0.7C51.1,73,45.1,80.2,38.6,80.2c0,0,0,0,0,0c-4.2,0-8.2-3-11.4-8.5c3.1,4.8,6.9,7.4,11,7.4c0,0,0,0,0,0
		c6.6,0,12.6-6.9,15.8-18L53,60.4C50,71.4,44.3,78.1,38.1,78.1c0,0,0,0,0,0c-4.5,0-8.7-3.6-11.8-9.9c-0.1-0.1-0.1-0.3-0.2-0.4
		c3,5.7,7.1,9.2,11.6,9.2c0,0,0,0,0,0c6.2,0,11.8-6.5,14.8-16.9l-0.8-0.6c-2.9,10.3-8.2,16.6-14,16.6c0,0,0,0,0,0
		c-5,0-9.5-4.8-12.4-12.1c2.9,6.6,7.1,10.8,11.9,10.9c0,0,0,0,0,0c5.8,0,11-6.1,13.9-15.8l-0.7-0.5C47.6,68,42.6,74,37.2,74
		c0,0,0,0,0,0c-4.9,0-9.2-4.8-11.9-12.2c0,0,0,0,0,0c0.3,0.8,0.6,1.5,1,2.3c2.7,5.5,6.4,8.6,10.4,8.6c0,0,0,0,0,0
		c5.4,0,10.3-5.6,12.9-14.7L49,57.4c-2.5,8.9-7.2,14.5-12.2,14.5c0,0,0,0,0,0c-3.7,0-7.1-2.9-9.7-8.2c-0.3-0.6-0.5-1.2-0.8-1.8
		c0.1,0,0.1,0,0.2,0c2.5,5.2,6,8.5,9.9,8.5c0,0,0,0,0,0c5,0,9.5-5.2,11.9-13.6l-0.6-0.4c-2.3,8.3-6.7,13.4-11.3,13.4c0,0,0,0,0,0
		c-3.5,0-6.7-2.9-9-7.6c0.2,0.1,0.3,0.1,0.5,0.1c2.2,3.7,5,5.9,8.1,5.9c0,0,0,0,0,0c4.5,0,8.7-4.8,11-12.5l-0.5-0.4
		c-2.1,7.6-6.1,12.3-10.5,12.3c0,0,0,0,0,0c-2.8,0-5.4-2-7.4-5.3c0,0,0.1,0,0.1,0c0.3,0.1,0.6,0.2,0.9,0.3c1.7,2.1,3.8,3.4,5.9,3.4
		c0,0,0,0,0,0c4.1,0,8-4.4,10-11.4L45,54.4c-2,6.9-5.6,11.3-9.6,11.3c0,0,0,0,0,0c-1.9,0-3.7-1-5.2-2.7c0.2,0,0.3,0,0.5,0
		c0.7,0.3,1.3,0.5,2,0.5c0.7,0.3,1.5,0.5,2.3,0.5c3.8,0,7.2-3.9,9-10.3l-0.4-0.3c-1.8,6.3-5.1,10.2-8.7,10.2c0,0,0,0,0,0
		c-0.4,0-0.8-0.1-1.3-0.2c3.4-0.5,6.4-4.4,8.1-10.4l-0.4-0.1c-1.7,6.3-4.9,10.1-8.4,10.1c0,0-0.1,0-0.1,0c-0.2-0.1-0.4-0.2-0.6-0.3
		c3-0.9,5.7-4.5,7.1-10l-0.4-0.1c-1.5,5.5-4.2,9.1-7.2,9.8c-0.2-0.2-0.5-0.3-0.7-0.6c2.5-1.3,4.7-4.6,6-9.4l-0.4-0.1
		c-1.2,4.7-3.4,8-5.9,9.1c-0.3-0.3-0.5-0.5-0.8-0.9c2-1.6,3.6-4.5,4.7-8.4l-0.5-0.1c-1,3.9-2.6,6.7-4.5,8.2
		c-0.3-0.4-0.6-0.8-0.8-1.2c1.4-1.6,2.6-4.1,3.4-7.1l-0.5-0.1c-0.8,2.9-1.9,5.2-3.2,6.8c-0.2-0.3-0.3-0.6-0.5-0.9
		c-0.1-0.3-0.2-0.5-0.4-0.8c0.8-1.4,1.6-3.2,2.1-5.3l-0.5-0.1c-0.5,1.9-1.1,3.5-1.9,4.8c-0.3-0.8-0.6-1.6-0.9-2.5
		c0.3-0.8,0.6-1.6,0.8-2.5l-0.5-0.1c-0.2,0.6-0.3,1.3-0.5,1.8c-0.8-2.9-1.2-6.1-1.2-9.5c0-3.5,0.5-6.7,1.3-9.5
		c0.2,0.6,0.3,1.1,0.5,1.7l0.5-0.1c-0.2-0.9-0.5-1.7-0.7-2.4c0.3-0.9,0.6-1.7,0.9-2.4c0.7,1.3,1.3,2.9,1.8,4.8l0.5-0.1
		c-0.5-2-1.2-3.8-2-5.3c0.3-0.6,0.6-1.2,0.9-1.7c1.3,1.6,2.3,4,3,6.9l0.5-0.1c-0.8-3-1.9-5.5-3.2-7.2c0.3-0.4,0.5-0.8,0.8-1.2
		c1.8,1.6,3.4,4.5,4.4,8.3l0.5-0.1c-1-3.9-2.6-6.9-4.5-8.6c0.3-0.3,0.5-0.6,0.8-0.8c2.4,1.3,4.5,4.6,5.7,9.3l0.4-0.1
		c-1.2-4.8-3.3-8.2-5.8-9.6c0.2-0.2,0.5-0.4,0.7-0.5c3,0.8,5.6,4.5,7,10l0.4-0.1c-1.4-5.5-4-9.2-7-10.2c0.2-0.1,0.4-0.2,0.6-0.3
		c3.5,0.1,6.7,4.1,8.4,10.4l0.4-0.1c-1.6-6-4.5-10-7.9-10.6c0.1,0,0.1-0.1,0.2-0.1c0.3,0,0.6-0.1,0.9-0.1c3.7,0,7.1,4.1,8.8,10.7
		l0.4-0.3c-1.8-6.6-5.2-10.8-9-10.8c0,0,0,0,0,0c-0.4,0-0.7,0-1.1,0.1c-0.4,0.1-0.8,0.2-1.2,0.3c-0.7,0-1.4,0.2-2.1,0.4c0,0,0,0,0,0
		c-0.1,0-0.2,0-0.2,0c1.5-1.6,3.2-2.5,5.1-2.5c0,0,0,0,0,0c4,0,7.7,4.5,9.5,11.7l0.4-0.3c-1.9-7.3-5.7-11.8-10-11.8c0,0,0,0,0,0
		c-2.1,0-4.1,1.1-5.8,3.1c-0.3,0.1-0.7,0.2-1,0.3c2.1-3.2,4.6-4.9,7.2-4.9c0,0,0,0,0,0c4.4,0,8.4,4.9,10.4,12.7l0.5-0.4
		c-2.1-7.9-6.3-12.9-10.9-12.9c0,0,0,0,0,0c-2.9,0-5.7,2-8,5.6c-0.1,0-0.3,0-0.4,0c2.4-4.6,5.6-7.1,8.8-7.1c0,0,0,0,0,0
		c4.8,0,9.1,5.3,11.3,13.7l0.6-0.4c-2.3-8.6-6.8-13.9-11.9-13.9c0,0,0,0,0,0c-3.7,0-7.1,2.8-9.7,7.8c0,0.1-0.1,0.1-0.1,0.2
		c0,0-0.1,0-0.1,0c0,0-0.1,0-0.1,0c0.2-0.5,0.4-0.9,0.6-1.4c2.7-5.2,6.1-8.1,9.8-8.1c0,0,0,0,0,0c5.1,0,9.7,5.7,12.2,14.8l0.7-0.5
		c-2.5-9.2-7.4-15-12.8-15c0,0,0,0,0,0c-4,0-7.7,3-10.5,8.5c-0.3,0.6-0.6,1.2-0.8,1.8c0,0,0,0,0,0c0.4-1,0.8-2,1.3-2.9
		c2.8-5.6,6.6-8.7,10.5-8.7c0,0,0,0,0,0c5.5,0,10.4,6.1,13,15.8l0.7-0.5c-2.7-9.9-7.9-16-13.8-16.1c0,0,0,0,0,0
		c-4.2,0-8.2,3.2-11.2,9c2.9-6.3,7.1-10.2,11.7-10.2c0,0,0,0,0,0c5.8,0,11.1,6.5,13.9,16.8l0.8-0.6C49.7,17.4,44.2,10.9,38,10.9
		c0,0,0,0,0,0c-4.5,0-8.6,3.5-11.7,9.1c3.1-6.3,7.4-10.3,12.1-10.3c0,0,0,0,0,0c6.2,0,11.8,6.9,14.8,17.8l0.9-0.7
		C51,15.7,45,8.8,38.4,8.8c0,0,0,0,0,0c-4.2,0-8.2,2.9-11.3,7.7c3.2-5.4,7.3-8.8,11.7-8.8c0,0,0,0,0,0c6.6,0,12.5,7.2,15.6,18.9
		l1-0.7C52.2,14,45.9,6.7,38.9,6.6c-3.9,0-7.5,2.2-10.5,6.1c3.2-4.6,7-7,10.9-7c0,0,0,0,0,0c6.9,0,13.2,7.6,16.5,19.9l1-0.8
		C53.4,12.3,46.8,4.6,39.4,4.5c0,0,0,0-0.1,0c-5.5,0-10.6,4.1-14.4,11.6c-1.5,3-2.8,6.4-3.7,10.1c-0.2,0.1-0.5,0.2-0.7,0.3
		c-0.1,0-0.1,0-0.2,0c-4.4,0-8,7.6-8,17s3.6,17,8,17c0,0,0.1,0,0.1,0c0.2,0.1,0.3,0.2,0.5,0.2c0.9,4,2.2,7.7,3.8,11
		c3.8,7.6,8.9,11.8,14.3,11.8c0,0,0,0,0.1,0c7.4,0,14.1-7.7,17.7-20.3l-1-0.8C52.3,74.7,45.9,82.3,39,82.3z M12.7,43.5
		c0-8.6,3-15.7,6.9-16.4c-3.3,2.4-5.6,8.8-5.6,16.5c0,7.5,2.3,13.9,5.5,16.4C15.7,59.1,12.7,52,12.7,43.5z M19.6,54.1
		c-1-3-1.6-6.6-1.6-10.5c0-4.3,0.7-8.3,2-11.4c-0.6,3.7-0.9,7.6-1,11.6C19,47.4,19.2,50.8,19.6,54.1z M17.5,43.6
		c0,4.8,0.9,9.1,2.4,12.4c0.1,0.9,0.3,1.8,0.5,2.7c-2.5-3-4.1-8.7-4.1-15.1c0-6.8,1.9-12.7,4.6-15.6c-0.2,0.8-0.4,1.6-0.5,2.4
		C18.6,33.8,17.5,38.5,17.5,43.6z M21,27.2c-3.1,2.8-5.2,9.1-5.2,16.4c0,7,2,13,4.8,16c0,0.1,0.1,0.2,0.1,0.4c-0.1,0-0.2,0-0.2,0
		c-3.4-1.9-5.9-8.5-5.9-16.4c0-8,2.6-14.7,6.1-16.5C20.7,27.1,20.8,27.1,21,27.2C21,27.1,21,27.2,21,27.2z M25.7,60.8
		c-0.1-0.3-0.3-0.7-0.4-1c0,0,0,0,0,0c0,0.1,0.1,0.1,0.1,0.2c0.1,0.3,0.2,0.5,0.3,0.8C25.8,60.8,25.8,60.8,25.7,60.8z M26,61.2
		C26,61.2,26,61.2,26,61.2c0.1,0,0.1,0,0.1,0.1C26,61.2,26,61.2,26,61.2z M26.5,60.5c-0.1-0.1-0.1-0.1-0.2-0.2
		c-0.1-0.3-0.3-0.7-0.4-1.1c0.1-0.1,0.1-0.1,0.2-0.2c0.2,0.4,0.4,0.9,0.6,1.3C26.6,60.4,26.6,60.4,26.5,60.5z M25.7,56
		c0-0.1,0.1-0.2,0.1-0.3c0.2,0.7,0.5,1.4,0.8,2.1c0,0.1-0.1,0.1-0.1,0.2c-0.1-0.1-0.2-0.3-0.2-0.4C26,57.1,25.8,56.5,25.7,56z
		 M26.9,61.5c0-0.1-0.1-0.1-0.1-0.2C26.9,61.4,26.9,61.4,26.9,61.5C27,61.5,26.9,61.5,26.9,61.5z M26.9,60.8
		C26.9,60.8,26.9,60.8,26.9,60.8C26.9,60.8,26.9,60.8,26.9,60.8C26.9,60.8,26.9,60.8,26.9,60.8z M27.1,60c0,0,0-0.1-0.1-0.1
		C27.1,59.9,27.1,60,27.1,60C27.2,60,27.2,60,27.1,60z M26.7,58.5c0,0,0.1-0.1,0.1-0.2c0.2,0.4,0.4,0.8,0.5,1.2
		C27.1,59.2,26.9,58.9,26.7,58.5z M27.5,61.9C27.5,61.9,27.5,61.9,27.5,61.9C27.5,61.9,27.5,61.9,27.5,61.9
		C27.5,61.9,27.5,61.9,27.5,61.9z M27.3,60.4c0,0,0.1-0.1,0.1-0.1c0.2,0.3,0.5,0.6,0.7,0.8c-0.1,0-0.2,0.1-0.4,0.2
		C27.6,61,27.5,60.8,27.3,60.4z M28.7,62.1C28.7,62.1,28.6,62.1,28.7,62.1c-0.2-0.1-0.4-0.2-0.6-0.3c0.2-0.1,0.3-0.1,0.5-0.2
		c0.1,0.2,0.2,0.3,0.3,0.5C28.8,62,28.7,62.1,28.7,62.1z M31.6,62.9C31.6,62.9,31.6,62.9,31.6,62.9C31.6,62.9,31.6,62.9,31.6,62.9
		C31.6,62.9,31.6,62.9,31.6,62.9z M31.1,62.5c-0.1,0-0.2,0-0.3,0c0,0-0.1,0-0.1,0c-0.2-0.1-0.4-0.2-0.6-0.3c0.2,0,0.3-0.1,0.5-0.2
		C30.7,62.2,30.9,62.4,31.1,62.5z M30,61.6c0.1,0.1,0.1,0.1,0.2,0.2c-0.2,0.1-0.4,0.1-0.6,0.2c-0.2-0.1-0.4-0.3-0.6-0.5
		c0,0,0-0.1-0.1-0.1c0.2-0.1,0.4-0.3,0.6-0.4C29.7,61.2,29.9,61.4,30,61.6z M29.2,60.6c-0.2,0.1-0.4,0.3-0.5,0.3
		c-0.2-0.3-0.4-0.7-0.6-1.1c0.1-0.1,0.3-0.3,0.4-0.4C28.7,59.9,29,60.3,29.2,60.6z M28.2,59.1c-0.1,0.1-0.2,0.3-0.4,0.4
		c-0.3-0.5-0.5-1-0.7-1.6c0.1-0.1,0.2-0.2,0.3-0.4C27.6,58,27.9,58.6,28.2,59.1z M26.3,54.7c0.3,0.8,0.6,1.5,0.9,2.3
		c-0.1,0.1-0.2,0.2-0.2,0.4c-0.3-0.7-0.5-1.5-0.8-2.3C26.2,55,26.2,54.8,26.3,54.7z M26,54c0,0.1-0.1,0.2-0.1,0.3
		c-0.8-3.1-1.3-6.7-1.3-10.6c0-0.5,0-1,0-1.5c0,0.5,0,1,0,1.5C24.6,47.5,25.1,51,26,54z M24.7,41.7c0.2-3.1,0.6-6,1.4-8.6
		c0,0.1,0.1,0.1,0.1,0.2C25.3,35.8,24.8,38.6,24.7,41.7z M25.9,31.4c0.2-0.7,0.5-1.4,0.7-2.1c0.1,0.1,0.1,0.2,0.2,0.3
		c-0.3,0.7-0.5,1.4-0.8,2.1C25.9,31.5,25.9,31.5,25.9,31.4z M26.4,32.5c0-0.1-0.1-0.1-0.1-0.2c0.2-0.8,0.5-1.6,0.8-2.3
		c0.1,0.1,0.1,0.2,0.2,0.3C26.9,31,26.6,31.7,26.4,32.5z M26.8,28.8c0.3-0.4,0.6-0.9,0.8-1.2c0,0,0.1,0,0.1,0.1
		c-0.3,0.5-0.5,1-0.7,1.5C26.9,29,26.9,28.9,26.8,28.8z M27.5,29.8c-0.1-0.1-0.1-0.2-0.2-0.3c0.2-0.5,0.5-1.1,0.7-1.6
		c0.1,0.1,0.2,0.2,0.3,0.3C28,28.7,27.8,29.3,27.5,29.8z M27.9,27.2C28,27.1,28,27.1,27.9,27.2C28,27.1,28,27.1,27.9,27.2
		C27.9,27.2,27.9,27.2,27.9,27.2z M28.6,27.9c-0.1-0.1-0.2-0.2-0.3-0.3c0.2-0.4,0.4-0.8,0.7-1.1c0.1,0.1,0.3,0.2,0.4,0.3
		C29.1,27.1,28.9,27.5,28.6,27.9z M31.8,24.5C31.8,24.5,31.8,24.5,31.8,24.5C31.8,24.5,31.8,24.5,31.8,24.5
		C31.8,24.5,31.8,24.5,31.8,24.5z M30.8,24.8c0.1,0,0.3,0,0.4,0.1c-0.2,0.1-0.4,0.3-0.5,0.4c-0.2-0.1-0.3-0.1-0.5-0.2
		C30.5,25,30.6,24.9,30.8,24.8z M29.5,25.7c0.1-0.1,0.2-0.2,0.3-0.2c0.2,0.1,0.4,0.1,0.6,0.2c-0.2,0.2-0.5,0.5-0.7,0.8
		c-0.2-0.1-0.3-0.2-0.5-0.3C29.3,25.9,29.4,25.8,29.5,25.7z M28.4,25.5c0.1-0.1,0.2-0.1,0.3-0.2c0.1,0,0.2,0,0.4,0.1
		c0,0-0.1,0.1-0.1,0.1c-0.1,0.1-0.2,0.2-0.4,0.3c-0.1-0.1-0.2-0.1-0.4-0.2C28.4,25.6,28.4,25.5,28.4,25.5z M27.8,25.4
		C27.7,25.4,27.7,25.4,27.8,25.4c-0.1,0-0.1,0-0.1,0C27.7,25.4,27.7,25.4,27.8,25.4z M27.7,26.8c0.1-0.3,0.3-0.5,0.4-0.7
		c0.1,0,0.2,0.1,0.2,0.1c-0.2,0.2-0.5,0.5-0.7,0.8c0,0,0,0,0,0C27.6,26.9,27.7,26.8,27.7,26.8z M27.3,26.2c-0.1,0.1-0.1,0.2-0.2,0.3
		c0,0,0,0,0,0c0,0-0.1-0.1-0.1-0.1C27.1,26.4,27.2,26.3,27.3,26.2z M26.7,26.8c0.1,0,0.1,0.1,0.2,0.1c-0.2,0.4-0.4,0.8-0.6,1.3
		c0,0-0.1-0.1-0.1-0.1C26.4,27.7,26.6,27.3,26.7,26.8z M26.2,26c0.1,0,0.1-0.1,0.2-0.1c0,0.1-0.1,0.2-0.1,0.3c0,0-0.1,0-0.1-0.1
		C26.2,26,26.2,26,26.2,26z M26,26.5C26.1,26.5,26.1,26.5,26,26.5c0,0.2,0,0.3-0.1,0.5c0,0.1-0.1,0.1-0.1,0.2
		C25.9,26.9,26,26.7,26,26.5z M26,28.6c0,0,0.1,0.1,0.1,0.1c-0.2,0.4-0.3,0.8-0.4,1.2c-0.1,0.2-0.2,0.4-0.3,0.6c0,0,0,0,0,0
		C25.6,29.9,25.8,29.2,26,28.6z M25.3,28.5c0-0.1,0.1-0.1,0.1-0.2c-0.2,0.5-0.3,0.9-0.5,1.4c0,0,0,0,0,0
		C25,29.3,25.2,28.9,25.3,28.5z M24.7,30.3C24.7,30.3,24.7,30.3,24.7,30.3c0,0.1-0.1,0.2-0.1,0.3C24.7,30.5,24.7,30.4,24.7,30.3z
		 M24.5,57c0-0.2-0.1-0.3-0.1-0.5C24.4,56.7,24.5,56.8,24.5,57C24.5,57,24.5,57,24.5,57z M24,43.8c0-4.2,0.6-8.2,1.6-11.7
		c0,0.1,0.1,0.2,0.1,0.3C24.7,35.7,24.1,39.6,24,43.8c0,4.1,0.6,8,1.6,11.3c0,0.1-0.1,0.2-0.1,0.3C24.5,51.9,24,47.9,24,43.8z
		 M24.9,58.3c-0.1-0.2-0.1-0.4-0.2-0.7c0,0,0,0,0,0c0.1,0.3,0.2,0.6,0.3,0.8C24.9,58.4,24.9,58.3,24.9,58.3z M25,56.2
		c-0.1-0.2-0.1-0.4-0.1-0.6C24.9,55.8,25,56,25,56.2C25,56.2,25,56.2,25,56.2z M25.3,56.7c0.2,0.6,0.4,1.3,0.6,1.9
		c0,0.1-0.1,0.1-0.1,0.2c-0.2-0.6-0.4-1.2-0.6-1.9C25.2,56.8,25.3,56.8,25.3,56.7z"/>
	<g>
		<g>
			<g>
				<g>
					<path d="M189.8,19.2c-0.4,0.2-1.2,0.4-2.3,0.4c-2.5,0-4.3-1.5-4.3-4.3c0-2.6,1.8-4.4,4.6-4.4c1.1,0,1.8,0.2,2.1,0.4l-0.3,0.9
						c-0.4-0.2-1-0.3-1.8-0.3c-2,0-3.4,1.3-3.4,3.5c0,2.1,1.2,3.4,3.3,3.4c0.7,0,1.4-0.1,1.8-0.3L189.8,19.2z"/>
					<path d="M191.7,15.3c0-0.7,0-1.3-0.1-1.9h1l0,1.2h0.1c0.3-0.8,1-1.3,1.7-1.3c0.1,0,0.2,0,0.3,0v1c-0.1,0-0.2,0-0.4,0
						c-0.8,0-1.4,0.6-1.5,1.4c0,0.2-0.1,0.3-0.1,0.5v3.2h-1.1V15.3z"/>
					<path d="M197.1,16.6c0,1.5,1,2.1,2.1,2.1c0.8,0,1.3-0.1,1.7-0.3l0.2,0.8c-0.4,0.2-1.1,0.4-2.1,0.4c-1.9,0-3.1-1.2-3.1-3
						s1.1-3.3,2.9-3.3c2,0,2.6,1.7,2.6,2.8c0,0.2,0,0.4,0,0.5H197.1z M200.5,15.9c0-0.7-0.3-1.8-1.6-1.8c-1.2,0-1.7,1-1.7,1.8H200.5
						z"/>
					<path d="M207.1,19.5l-0.1-0.8h0c-0.3,0.5-1,0.9-1.9,0.9c-1.3,0-1.9-0.9-1.9-1.7c0-1.5,1.3-2.3,3.8-2.2v-0.1
						c0-0.5-0.1-1.4-1.4-1.4c-0.6,0-1.2,0.2-1.6,0.4l-0.3-0.7c0.5-0.3,1.3-0.5,2.1-0.5c1.9,0,2.4,1.3,2.4,2.5V18c0,0.5,0,1,0.1,1.4
						H207.1z M206.9,16.4c-1.2,0-2.7,0.2-2.7,1.4c0,0.7,0.5,1,1.1,1c0.8,0,1.3-0.5,1.5-1c0-0.1,0.1-0.2,0.1-0.3V16.4z"/>
					<path d="M211.8,11.7v1.7h1.6v0.8h-1.6v3.3c0,0.7,0.2,1.2,0.9,1.2c0.3,0,0.5,0,0.7-0.1l0.1,0.8c-0.2,0.1-0.6,0.1-1,0.1
						c-0.5,0-1-0.2-1.2-0.5c-0.3-0.3-0.4-0.9-0.4-1.6v-3.3h-1v-0.8h1V12L211.8,11.7z"/>
					<path d="M216.6,11.7c0,0.4-0.3,0.7-0.7,0.7c-0.4,0-0.7-0.3-0.7-0.7c0-0.4,0.3-0.7,0.7-0.7C216.3,11,216.6,11.3,216.6,11.7z
						 M215.3,19.5v-6h1.1v6H215.3z"/>
					<path d="M219.5,13.4l1.2,3.4c0.2,0.5,0.4,1,0.5,1.5h0c0.1-0.5,0.3-1,0.5-1.5l1.2-3.4h1.2l-2.5,6h-1.1l-2.4-6H219.5z"/>
					<path d="M226.4,16.6c0,1.5,1,2.1,2.1,2.1c0.8,0,1.3-0.1,1.7-0.3l0.2,0.8c-0.4,0.2-1.1,0.4-2.1,0.4c-1.9,0-3.1-1.2-3.1-3
						s1.1-3.3,2.9-3.3c2,0,2.6,1.7,2.6,2.8c0,0.2,0,0.4,0,0.5H226.4z M229.7,15.9c0-0.7-0.3-1.8-1.6-1.8c-1.2,0-1.7,1-1.7,1.8H229.7
						z"/>
					<path d="M189.8,33.9c-0.4,0.2-1.2,0.4-2.3,0.4c-2.5,0-4.3-1.5-4.3-4.3c0-2.6,1.8-4.4,4.6-4.4c1.1,0,1.8,0.2,2.1,0.4l-0.3,0.9
						c-0.4-0.2-1-0.3-1.8-0.3c-2,0-3.4,1.3-3.4,3.5c0,2.1,1.2,3.4,3.3,3.4c0.7,0,1.4-0.1,1.8-0.3L189.8,33.9z"/>
					<path d="M197.3,31.1c0,2.2-1.6,3.2-3.1,3.2c-1.7,0-3-1.2-3-3.1c0-2,1.4-3.2,3.1-3.2C196.1,28,197.3,29.3,197.3,31.1z
						 M192.3,31.2c0,1.3,0.8,2.3,1.9,2.3c1.1,0,1.9-1,1.9-2.3c0-1-0.5-2.3-1.9-2.3C192.9,28.9,192.3,30.1,192.3,31.2z"/>
					<path d="M199.4,29.8c0-0.6,0-1.1-0.1-1.6h1l0.1,1h0c0.3-0.6,1-1.1,2.1-1.1c0.9,0,2.2,0.5,2.2,2.6v3.6h-1.1v-3.5
						c0-1-0.4-1.8-1.4-1.8c-0.8,0-1.3,0.5-1.5,1.1c-0.1,0.1-0.1,0.3-0.1,0.5v3.6h-1.1V29.8z"/>
					<path d="M208.5,26.4v1.7h1.6V29h-1.6v3.3c0,0.7,0.2,1.2,0.9,1.2c0.3,0,0.5,0,0.7-0.1l0.1,0.8c-0.2,0.1-0.6,0.1-1,0.1
						c-0.5,0-1-0.2-1.2-0.5c-0.3-0.3-0.4-0.9-0.4-1.6V29h-1v-0.8h1v-1.4L208.5,26.4z"/>
					<path d="M212.6,31.4c0,1.5,1,2.1,2.1,2.1c0.8,0,1.3-0.1,1.7-0.3l0.2,0.8c-0.4,0.2-1.1,0.4-2.1,0.4c-1.9,0-3.1-1.2-3.1-3
						c0-1.8,1.1-3.3,2.9-3.3c2,0,2.6,1.7,2.6,2.8c0,0.2,0,0.4,0,0.5H212.6z M216,30.6c0-0.7-0.3-1.8-1.6-1.8c-1.2,0-1.7,1-1.7,1.8
						H216z"/>
					<path d="M219.1,29.8c0-0.6,0-1.1-0.1-1.6h1l0.1,1h0c0.3-0.6,1-1.1,2.1-1.1c0.9,0,2.2,0.5,2.2,2.6v3.6h-1.1v-3.5
						c0-1-0.4-1.8-1.4-1.8c-0.8,0-1.3,0.5-1.5,1.1c-0.1,0.1-0.1,0.3-0.1,0.5v3.6h-1.1V29.8z"/>
					<path d="M228.2,26.4v1.7h1.6V29h-1.6v3.3c0,0.7,0.2,1.2,0.9,1.2c0.3,0,0.5,0,0.7-0.1l0.1,0.8c-0.2,0.1-0.6,0.1-1,0.1
						c-0.5,0-1-0.2-1.2-0.5c-0.3-0.3-0.4-0.9-0.4-1.6V29h-1v-0.8h1v-1.4L228.2,26.4z"/>
					<path d="M185.3,41.5h-2.7v-0.9h6.5v0.9h-2.7V49h-1.1V41.5z"/>
					<path d="M193.3,49l-0.1-0.8h0c-0.3,0.5-1,0.9-1.9,0.9c-1.3,0-1.9-0.9-1.9-1.7c0-1.5,1.3-2.3,3.8-2.2V45c0-0.5-0.1-1.4-1.4-1.4
						c-0.6,0-1.2,0.2-1.6,0.4l-0.3-0.7c0.5-0.3,1.3-0.5,2.1-0.5c1.9,0,2.4,1.3,2.4,2.5v2.3c0,0.5,0,1,0.1,1.4H193.3z M193.2,45.9
						c-1.2,0-2.7,0.2-2.7,1.4c0,0.7,0.5,1,1.1,1c0.8,0,1.3-0.5,1.5-1c0-0.1,0.1-0.2,0.1-0.3V45.9z"/>
					<path d="M198,41.2c0,0.4-0.3,0.7-0.7,0.7c-0.4,0-0.7-0.3-0.7-0.7c0-0.4,0.3-0.7,0.7-0.7C197.7,40.5,198,40.8,198,41.2z
						 M196.8,49v-6h1.1v6H196.8z"/>
					<path d="M200.4,44.9c0-0.8,0-1.4-0.1-2h1l0.1,1h0c0.5-0.7,1.2-1.2,2.2-1.2c1.5,0,2.7,1.2,2.7,3.1c0,2.2-1.4,3.2-2.8,3.2
						c-0.8,0-1.6-0.3-1.9-0.9h0v3.3h-1.1V44.9z M201.5,46.5c0,0.2,0,0.3,0.1,0.4c0.2,0.8,0.9,1.3,1.7,1.3c1.2,0,1.9-0.9,1.9-2.3
						c0-1.2-0.7-2.2-1.9-2.2c-0.8,0-1.5,0.5-1.7,1.4c0,0.1-0.1,0.3-0.1,0.4V46.5z"/>
					<path d="M209.1,46.1c0,1.5,1,2.1,2.1,2.1c0.8,0,1.3-0.1,1.7-0.3l0.2,0.8c-0.4,0.2-1.1,0.4-2.1,0.4c-1.9,0-3.1-1.2-3.1-3
						s1.1-3.3,2.9-3.3c2,0,2.6,1.7,2.6,2.8c0,0.2,0,0.4,0,0.5H209.1z M212.4,45.4c0-0.7-0.3-1.8-1.6-1.8c-1.2,0-1.7,1-1.7,1.8H212.4
						z"/>
					<path d="M216.8,41.2c0,0.4-0.3,0.7-0.7,0.7c-0.4,0-0.7-0.3-0.7-0.7c0-0.4,0.3-0.7,0.7-0.7C216.5,40.5,216.8,40.8,216.8,41.2z
						 M215.5,49v-6h1.1v6H215.5z"/>
				</g>
			</g>
			<g>
				<g>
					<path d="M189.3,56.6c0.9,0.8,2.1,2,2.6,2.8l-1,0.7c-0.1-0.2-0.3-0.5-0.5-0.7c-5.2,0.2-5.9,0.3-6.4,0.4
						c-0.1-0.2-0.2-0.8-0.4-1.1c0.3-0.1,0.5-0.2,0.8-0.5c0.3-0.3,1.4-1.4,2.1-2.6l1.2,0.5c-0.6,0.9-1.4,1.7-2.1,2.4l4-0.1
						c-0.4-0.4-0.8-0.8-1.1-1.2L189.3,56.6z M184.3,60.4h6.6v4.1h-1.3v-0.5h-4.2v0.5h-1.2V60.4z M185.5,61.5V63h4.2v-1.5H185.5z"/>
					<path d="M197.9,61.8l0.2,1c-1.4,0.6-2.9,1.2-4,1.6l-0.5-1.2h0c0.7-0.2,1.6-0.5,2.6-0.8v-3.4h-2.3V58h2.3v-2.1h1.2V62
						L197.9,61.8z M201.1,63.2c0.4,0,0.4-0.4,0.5-2.1c0.3,0.2,0.8,0.5,1.1,0.5c-0.1,2-0.4,2.7-1.5,2.7h-1.2c-1.1,0-1.4-0.4-1.4-1.7
						v-6.7h1.2V58h2.6v1.1h-2.6v3.5c0,0.5,0,0.6,0.4,0.6H201.1z"/>
					<path d="M213.1,56.1v8.5h-1.2v-0.4h-6.1v0.4h-1.1v-8.5H213.1z M211.9,63.2v-6h-1.2c0.3,0.2,0.6,0.4,0.8,0.5l-0.4,0.4h0.5v0.8
						h-1.8c0,0.5,0.1,1,0.2,1.4c0.2-0.4,0.3-0.8,0.5-1.2l0.9,0.2c-0.2,0.8-0.6,1.5-1,2.2c0.1,0.3,0.3,0.5,0.5,0.5
						c0.1,0,0.2-0.3,0.2-0.9c0.2,0.2,0.5,0.4,0.7,0.5c-0.2,1.2-0.7,1.5-1.3,1.2c-0.3-0.1-0.5-0.3-0.7-0.6c-0.3,0.3-0.6,0.6-1,0.8
						c-0.1-0.2-0.4-0.5-0.6-0.7c0.1-0.1,0.2-0.1,0.3-0.2c-0.8,0.1-1.5,0.2-2.2,0.3l-0.1-0.8c0.7-0.1,1.7-0.2,2.8-0.3l0,0.5
						c0.2-0.1,0.3-0.3,0.5-0.5c-0.2-0.7-0.3-1.5-0.4-2.5h-2.7v-0.8h2.7c0-0.3,0-0.5,0-0.8h1c0,0.3,0,0.5,0,0.8h1.1
						c-0.2-0.2-0.5-0.4-0.8-0.5l0.5-0.4h-4.7v6H211.9z M208.6,61.1h-2.2v-1.8h2.2V61.1z M207.9,59.9h-0.7v0.6h0.7V59.9z"/>
					<path d="M219.6,59.9c-0.3,0.3-0.6,0.6-1,0.8c-0.1-0.2-0.4-0.5-0.5-0.7c0.1,0.3,0.1,0.6,0.1,0.9c0,0.6-0.1,1-0.4,1.2
						c-0.1,0.1-0.3,0.2-0.5,0.2c-0.2,0-0.4,0-0.6,0c0-0.3-0.1-0.7-0.3-0.9c0.2,0,0.3,0,0.4,0c0.1,0,0.2,0,0.3-0.1
						c0.1-0.1,0.2-0.3,0.2-0.6c0-0.5-0.1-1.1-0.6-1.7c0.2-0.6,0.4-1.3,0.5-2h-0.7v7.4h-1v-8.4h2.1l0.2,0l0.7,0.4
						c-0.1,0.4-0.2,0.8-0.4,1.2c0.5-0.5,0.9-1.2,1.2-1.9l0.9,0.2c-0.1,0.2-0.1,0.3-0.2,0.5h0.7l0.2,0l0.6,0.2l0,0.2l0.5-0.1l0-0.4
						h1.5l0.2,0l0.6,0.4c-0.3,0.8-0.7,1.6-1.2,2.2c0.4,0.5,0.8,0.9,1.4,1.2c-0.2,0.2-0.5,0.5-0.7,0.8c-0.4-0.3-0.8-0.6-1.2-1v0.6
						h-2.9V59.9z M219.3,58.9c0.1-0.1,0.2-0.3,0.3-0.5c-0.2-0.2-0.5-0.4-0.7-0.6c-0.2,0.3-0.4,0.5-0.6,0.7c-0.1-0.1-0.3-0.3-0.5-0.4
						c-0.1,0.3-0.2,0.6-0.3,0.9c0.3,0.4,0.4,0.7,0.5,1c0.4-0.2,0.7-0.5,1-0.9c-0.4,0.1-0.7,0.1-1.1,0.2l-0.1-0.7
						c0.4,0,0.8-0.1,1.4-0.1L219.3,58.9z M220,62.5c-0.4,0.6-0.9,1.3-1.3,1.7c-0.2-0.2-0.7-0.4-0.9-0.6c0.4-0.4,0.9-1,1.2-1.5
						L220,62.5z M221.6,61.8v2.7h-1.1v-2.7h-1.8v-0.9h4.7v0.9H221.6z M219.4,57.1l-0.1,0.1c0.2,0.2,0.4,0.3,0.6,0.5
						c0.1-0.2,0.2-0.4,0.2-0.6H219.4z M222.2,59.4c-0.5-0.6-0.8-1.4-1.1-2.2c-0.3,0.9-0.6,1.6-1.1,2.2H222.2z M222,57
						c0.1,0.3,0.2,0.6,0.4,0.9c0.2-0.3,0.3-0.6,0.5-0.9H222z M222.9,62c0.4,0.5,1,1.1,1.3,1.5l-0.9,0.6c-0.3-0.4-0.9-1.1-1.3-1.6
						L222.9,62z"/>
					<path d="M234.2,63.2c0,0.6-0.1,0.9-0.5,1.1c-0.4,0.2-1,0.2-1.9,0.2c0-0.3-0.2-0.8-0.4-1.1c0.5,0,1.2,0,1.4,0
						c0.2,0,0.2-0.1,0.2-0.2v-1.7c-0.2,0.2-0.5,0.6-0.7,0.8c-1-0.6-1.7-1.5-2.1-2.6c-0.4,1.2-1.1,2.1-2.2,2.6
						c-0.1-0.2-0.3-0.5-0.5-0.7v2.8h-1.2v-6.7h3.5c0-0.2,0-0.5-0.1-0.7h-1.7v-1h2.7c0,0.6,0.1,1.2,0.2,1.7h3.3V63.2z M227.5,61.4
						c1-0.5,1.6-1.4,1.9-2.5h-1.9V61.4z M231.2,58.9c0.3,1,0.9,1.9,1.9,2.4v-2.4H231.2z"/>
					<path d="M241.7,59c0,0.1-0.1,0.2-0.2,0.2c1.1,1.1,2.4,1.8,3.9,2.3c-0.3,0.2-0.6,0.6-0.7,0.9c-0.4-0.2-0.7-0.3-1-0.5v2.6h-1.2
						v-0.3h-3.3v0.3h-1.1v-2.5c-0.3,0.2-0.7,0.3-1,0.5c-0.2-0.3-0.5-0.7-0.7-0.9c1.8-0.6,3.5-1.7,4.4-3.1L241.7,59z M237.9,58.5
						h-1.1v-2h3.6c-0.1-0.2-0.2-0.4-0.3-0.6l1.2-0.3c0.1,0.3,0.3,0.6,0.4,0.9h3.4v2h-1.2v-1h-6V58.5z M240.2,58
						c-0.6,0.9-1.6,1.7-2.5,2.1c-0.2-0.2-0.6-0.7-0.8-0.9c0.9-0.4,1.7-1,2.2-1.6L240.2,58z M242.6,63.3v-1h-3.3v1H242.6z
						 M242.6,61.3c-0.6-0.4-1.1-0.8-1.6-1.3c-0.5,0.5-1,0.9-1.5,1.3H242.6z M242.3,57.7c0.8,0.5,1.9,1.2,2.4,1.7l-0.9,0.7
						c-0.5-0.5-1.5-1.3-2.4-1.8L242.3,57.7z"/>
					<path d="M254,60.1c-0.4,0.9-0.9,1.6-1.5,2.2c0.9,0.6,2.1,1,3.6,1.2c-0.3,0.2-0.6,0.7-0.7,1c-1.5-0.3-2.8-0.8-3.8-1.5
						c-1,0.7-2.3,1.2-3.7,1.5c-0.1-0.3-0.5-0.8-0.7-1c1.4-0.3,2.6-0.7,3.6-1.3c-0.6-0.6-1.1-1.3-1.4-2.2l1-0.3
						c0.3,0.7,0.7,1.3,1.3,1.8c0.6-0.5,1-1.1,1.3-1.9L254,60.1z M250.7,58.5c-0.7,0.8-1.7,1.7-2.6,2.2c-0.2-0.2-0.7-0.6-0.9-0.8
						c0.9-0.4,1.8-1.1,2.4-1.8L250.7,58.5z M255.9,58h-8.6v-1.1h3.8c-0.1-0.3-0.3-0.7-0.5-0.9l1.1-0.4c0.3,0.4,0.6,0.9,0.7,1.3l0,0
						h3.5V58z M253.4,58c0.8,0.6,2,1.4,2.5,2l-1,0.7c-0.5-0.6-1.6-1.5-2.4-2.1L253.4,58z"/>
					<path d="M266.3,60.5c0,0,0,0.3,0,0.4c-0.2,2-0.4,2.9-0.8,3.2c-0.2,0.2-0.5,0.3-0.8,0.4c-0.3,0-0.7,0-1.2,0c0-0.3-0.1-0.7-0.3-1
						c0.4,0,0.8,0,1,0s0.3,0,0.4-0.1c0.2-0.2,0.4-0.7,0.5-2h-0.8c-0.5,1.3-1.3,2.4-2.2,3.1c-0.2-0.2-0.7-0.5-0.9-0.7
						c0.8-0.6,1.5-1.4,2-2.4h-0.8c-0.7,1.2-1.8,2.2-2.9,2.8c-0.2-0.2-0.6-0.6-0.9-0.8c1-0.5,1.9-1.2,2.5-2H260
						c-0.5,0.4-1,0.8-1.5,1.1c-0.2-0.2-0.6-0.6-0.9-0.8c0.9-0.5,1.8-1.1,2.4-1.9h-0.9v-3.8h6.4V60h-4.2c-0.1,0.2-0.3,0.4-0.4,0.6
						H266.3z M260.2,57.6h4.1V57h-4.1V57.6z M260.2,59.1h4.1v-0.6h-4.1V59.1z"/>
					<path d="M183.2,76.8h8.8v0.9h-8.8V76.8z M186.4,73.8c0-0.1-0.1-0.3-0.2-0.4c-2.1,0.4-2.4,0.5-2.7,0.6c0-0.2-0.2-0.5-0.3-0.7
						c0.2-0.1,0.4-0.2,0.4-0.6v-3.3h3.5v2.7h-0.7c0.3,0.5,0.6,1,0.7,1.4L186.4,73.8z M187.6,71.8c0.1-0.5,0.2-1.2,0.3-1.8h-0.3v-0.8
						h4.2v0.8h-1.5c0,0.3,0,0.7-0.1,1h1.7v0.8h-1.8c0,0.1,0,0.1,0,0.2h0.5v0.7c0,0.2,0,0.2,0.2,0.2h0.4c0.2,0,0.2-0.1,0.2-0.7
						c0.2,0.1,0.5,0.2,0.7,0.3c-0.1,0.9-0.3,1.1-0.8,1.1h-0.7c-0.7,0-0.9-0.2-0.9-0.9c-0.4,0.5-0.9,0.9-1.8,1.1h3v2.5h-6.3v-2.5h3.2
						c-0.1-0.2-0.3-0.6-0.5-0.7c1.1-0.3,1.6-0.7,1.9-1.4H187.6z M184.7,70v0.4h1.6V70H184.7z M184.7,71.4h1.6V71h-1.6V71.4z
						 M185.9,72.7c-0.1-0.1-0.1-0.3-0.2-0.4l0.7-0.2h-1.7v0.8L185.9,72.7z M189.7,74.5h-4.1v0.4h4.1V74.5z M189.7,75.4h-4.1v0.4h4.1
						V75.4z M189.3,71c0-0.3,0.1-0.6,0.1-1h-0.6c0,0.3-0.1,0.6-0.2,1H189.3z"/>
					<path d="M195.7,71.7v-0.4c-0.3,0.2-0.7,0.5-1,0.7h4.1v3h-3.4c0,0.1,0,0.2,0,0.3h3.7v2.5h-1v-0.3h-1.8v0.3h-1v-2
						c-0.1,0.6-0.3,1.2-0.6,1.7c-0.2-0.1-0.7-0.3-1-0.4c0.8-1.2,0.9-2.9,0.9-4v-1l-0.2,0.1c-0.1-0.3-0.4-0.8-0.6-1.1
						c1.1-0.5,2.3-1.2,2.9-2.1l1.1,0.4c-0.1,0.1-0.1,0.2-0.2,0.2c0.7,0.4,1.5,0.9,2,1.2l-0.6,0.9c-0.3-0.2-0.6-0.5-1.1-0.7v0.6
						H195.7z M197.8,74.2v-0.4h-2.2c0,0.1,0,0.3,0,0.4H197.8z M195.5,72.8v0.3v0.1h2.2v-0.4H195.5z M197.7,71.1
						c-0.3-0.2-0.6-0.4-0.9-0.6c-0.2,0.2-0.4,0.4-0.6,0.6H197.7z M196.2,76.1v0.7h1.8v-0.7H196.2z M200.7,75.3h-1.1V70h1.1V75.3z
						 M202.5,69.1v7.4c0,0.6-0.1,0.9-0.5,1.1c-0.3,0.2-0.9,0.2-1.7,0.2c0-0.3-0.2-0.8-0.3-1.1c0.5,0,1,0,1.2,0s0.2,0,0.2-0.2v-7.4
						H202.5z"/>
					<path d="M206.7,74.4v2.2c0,0.5-0.1,0.8-0.4,1c-0.3,0.2-0.8,0.2-1.5,0.2c0-0.3-0.2-0.7-0.3-1c0.4,0,0.8,0,0.9,0
						c0.1,0,0.2,0,0.2-0.2v-2l-1,0.2l-0.3-1.1c0.4-0.1,0.8-0.2,1.3-0.3v-1.7h-1.2v-1h1.2v-1.8h1.1v1.8h1v1h-1v1.4l0.7-0.2l0.1,1
						L206.7,74.4z M212.9,73.4c-0.4,1.2-0.9,2.1-1.7,2.7c0.7,0.3,1.4,0.6,2.3,0.7c-0.2,0.3-0.6,0.7-0.7,1c-1-0.2-1.8-0.6-2.5-1
						c-0.8,0.5-1.7,0.8-2.7,1c-0.1-0.3-0.4-0.8-0.6-1c0.8-0.1,1.6-0.4,2.3-0.7c-0.5-0.5-1-1.1-1.4-1.8l0.4-0.1h-0.6v-1h4.3l0.2,0
						L212.9,73.4z M208,73c-0.1-0.2-0.6-0.7-0.8-0.8c1.2-0.5,1.3-1.2,1.3-1.8v-1h3.5v2.1c0,0.3,0,0.4,0.2,0.4h0.5
						c0.2,0,0.4,0,0.5-0.1c0,0.3,0,0.7,0.1,0.9c-0.1,0.1-0.4,0.1-0.6,0.1h-0.7c-1,0-1.2-0.4-1.2-1.3v-1l-1.3,0
						C209.6,71.4,209.4,72.4,208,73z M209.1,74.2c0.3,0.5,0.7,0.9,1.2,1.3c0.5-0.4,0.8-0.8,1.1-1.3H209.1z"/>
					<path d="M221.9,75.2v2.7h-1.1v-2.7h-2.2v-0.9h2.2v-0.6h-1.4V71h-0.7v0.9l-0.4,0c0,1-0.1,2.2-0.6,3.4c0.4,0.4,0.8,0.8,1,1.1
						l-0.7,0.9c-0.2-0.3-0.5-0.6-0.8-1c-0.4,0.5-0.8,1.1-1.4,1.6c-0.2-0.2-0.5-0.5-0.7-0.7c0.6-0.5,1.1-1,1.4-1.6
						c-0.4-0.4-0.9-0.8-1.2-1.2c0.2-0.6,0.3-1.4,0.5-2.2l-0.5,0l-0.1-1l0.8,0c0.1-0.7,0.2-1.3,0.2-1.9l1,0c0,0.6-0.1,1.2-0.2,1.9
						l0.5,0v-0.6h1v0.5l0.4,0V70h0.7v-1h1.1v1h1.7v-1h1.1v1h0.8V71h-0.8v2.7h-1.3v0.6h2.1v0.9H221.9z M216.6,72
						c-0.1,0.7-0.3,1.4-0.4,2c0.2,0.2,0.4,0.4,0.6,0.6c0.3-0.9,0.4-1.8,0.4-2.6L216.6,72z M220.5,75.7c-0.3,0.8-0.9,1.6-1.4,2
						c-0.2-0.2-0.5-0.6-0.8-0.8c0.5-0.3,1.1-1,1.4-1.6L220.5,75.7z M220.3,71v0.5h1.7V71H220.3z M220.3,72.8h1.7v-0.5h-1.7V72.8z
						 M222.9,75.4c0.4,0.6,1,1.4,1.2,1.9l-0.9,0.4c-0.2-0.5-0.8-1.3-1.2-1.9L222.9,75.4z"/>
					<path d="M231.4,69.5c-0.1,0.1-0.2,0.3-0.3,0.4c1.3,1.1,2.6,1.8,3.9,2.2c-0.3,0.3-0.6,0.7-0.8,1c-0.5-0.2-0.9-0.4-1.4-0.7v0.6
						h-4.9v-0.5c-0.4,0.3-0.9,0.5-1.3,0.7c-0.2-0.3-0.5-0.7-0.9-1c1.8-0.7,3.7-1.8,4.7-3.3L231.4,69.5z M227.2,73.9h6.3v3.9h-1.2
						v-0.4h-3.9v0.4h-1.2V73.9z M228.4,74.9v1.5h3.9v-1.5H228.4z M232,72.1c-0.6-0.4-1.1-0.8-1.7-1.4c-0.5,0.5-1,0.9-1.6,1.4H232z"
						/>
					<path d="M241.7,69.3c0,0.1-0.1,0.1-0.1,0.2c0.9,0.8,2.5,1.4,4.1,1.7c-0.2,0.2-0.6,0.6-0.7,0.9c-0.2,0-0.4-0.1-0.6-0.2v2.4h-6.8
						V72c-0.2,0.1-0.4,0.1-0.6,0.2c-0.1-0.2-0.4-0.7-0.6-0.9c1.8-0.4,3.5-1.2,4.4-2.3L241.7,69.3z M244,71.8
						c-0.5-0.2-0.9-0.4-1.3-0.6v0.2h-3.4v-0.2c-0.4,0.2-0.8,0.4-1.2,0.5H244z M238.1,74.7h5.8v3.2h-1.2v-0.2h-3.4v0.3h-1.1V74.7z
						 M239.2,73.7c0-0.3-0.2-0.7-0.3-1l0.8-0.2h-1.1v1.2H239.2z M239.2,75.4v0.4h3.4v-0.4H239.2z M242.6,76.9v-0.4h-3.4v0.4H242.6z
						 M240.4,72.5h-0.8c0.2,0.3,0.3,0.7,0.4,1l-0.6,0.2h1V72.5z M241.8,70.7c-0.3-0.2-0.6-0.4-0.8-0.6c-0.3,0.2-0.5,0.4-0.8,0.6
						H241.8z M241.3,72.5v1.2h0.9l-0.6-0.2c0.1-0.3,0.3-0.7,0.4-1H241.3z M243.3,72.5h-1l0.8,0.2c-0.2,0.4-0.4,0.7-0.5,1h0.8V72.5z"
						/>
				</g>
			</g>
		</g>
		<g>
			<path d="M83.6,9.7c-5.1,0.6-8.8,5.1-8.8,10v48c0,5,3.7,9.4,8.8,10c6.2,0.8,11.4-3.9,11.4-9.7V50.7c0-1.3-0.5-2.5-1.5-3.4
				l-2.9-2.7c-0.3-0.2-0.7-0.1-0.7,0.3v23.3c0,3-2.8,5.4-6,4.8c-2.4-0.4-4.1-2.6-4.1-5l0-48.5c0-3,2.8-5.4,6-4.8
				c2.4,0.4,4.1,2.6,4.1,5l0,7.6c0,1.3,0.5,2.5,1.5,3.4l2.9,2.7c0.3,0.2,0.7,0.1,0.7-0.3V19.4C95.1,13.6,89.8,9,83.6,9.7"/>
			<path d="M115.7,9.7c-5.1,0.6-8.8,5.1-8.8,10v48c0,5,3.7,9.4,8.8,10c6.2,0.8,11.4-3.9,11.4-9.7V50.7c0-1.3-0.5-2.5-1.5-3.4
				l-2.9-2.7c-0.3-0.2-0.7-0.1-0.7,0.3v23.3c0,3-2.8,5.4-6,4.8c-2.4-0.4-4.1-2.6-4.1-5l0-48.5c0-3,2.8-5.4,6-4.8
				c2.4,0.4,4.1,2.6,4.1,5l0,7.6c0,1.3,0.5,2.5,1.5,3.4l2.9,2.7c0.3,0.2,0.7,0.1,0.7-0.3V19.4C127.1,13.6,121.9,9,115.7,9.7"/>
			<g>
				<path d="M160.1,9.6h-22c-0.3,0-0.5,0.3-0.3,0.6l2.4,4.1c0.1,0.1,0.2,0.2,0.3,0.2h6v63c0,0.2,0.2,0.4,0.4,0.4h4.3
					c0.2,0,0.4-0.2,0.4-0.4v-63c0,0,5,0,6.2,0c0.1,0,0.3-0.1,0.3-0.2l2.3-4.1C160.6,9.9,160.4,9.6,160.1,9.6z"/>
			</g>
		</g>
	</g>
</g>
</svg>
