<?xml version="1.0" encoding="utf-8"?>
<!-- Generator: Adobe Illustrator 24.3.0, SVG Export Plug-In . SVG Version: 6.00 Build 0)  -->
<svg version="1.1" id="圖層_1" xmlns="http://www.w3.org/2000/svg" xmlns:xlink="http://www.w3.org/1999/xlink" x="0px" y="0px"
	 viewBox="0 0 300 123.2" style="enable-background:new 0 0 300 123.2;" xml:space="preserve">
<g>
	<g>
		<g>
			<g>
				<path d="M221,85.6v-0.3c-0.3,0.2-0.6,0.4-0.9,0.6h3.4v2.5h-2.8c0,0.1,0,0.2,0,0.2h3v2.2h-0.8v-0.2h-1.5v0.2h-0.8v-1.7
					c-0.1,0.5-0.3,1-0.5,1.4c-0.2-0.1-0.6-0.3-0.8-0.4c0.6-1,0.7-2.5,0.7-3.4V86l-0.2,0.1c-0.1-0.2-0.3-0.7-0.5-0.9
					c0.9-0.4,1.9-1.1,2.4-1.8l0.9,0.3c0,0.1-0.1,0.1-0.1,0.2c0.6,0.3,1.3,0.7,1.6,1l-0.5,0.8c-0.2-0.2-0.5-0.4-0.9-0.6v0.5H221z
					 M222.6,87.8v-0.3h-1.8c0,0.1,0,0.2,0,0.3H222.6z M220.8,86.6v0.3v0h1.8v-0.3H220.8z M222.6,85.1c-0.3-0.2-0.5-0.3-0.8-0.5
					c-0.2,0.2-0.3,0.3-0.5,0.5H222.6z M221.4,89.3v0.6h1.5v-0.6H221.4z M225.1,88.7h-0.9v-4.5h0.9V88.7z M226.5,83.4v6.3
					c0,0.5-0.1,0.8-0.4,0.9c-0.3,0.2-0.7,0.2-1.4,0.2c0-0.3-0.2-0.7-0.3-1c0.4,0,0.8,0,1,0s0.2,0,0.2-0.2v-6.3H226.5z"/>
				<path d="M228.1,90.2c0.4-0.3,0.8-0.9,1-1.4l0.8,0.4c-0.2,0.5-0.6,1.1-1,1.5L228.1,90.2z M235.3,85.9h-7v-0.7h1.7
					c0-0.2-0.1-0.3-0.2-0.4l0.6-0.1h-1.7v-0.7h2.6c0-0.1-0.1-0.3-0.1-0.4l0.9-0.2c0.1,0.2,0.2,0.4,0.2,0.5h2.5v0.7h-1.7l0.6,0.1
					c-0.1,0.2-0.2,0.3-0.3,0.5h1.7V85.9z M234.4,88.6H232c0.3,0.2,0.6,0.4,0.8,0.5l-0.6,0.6c-0.3-0.2-0.8-0.6-1.3-0.8l0.3-0.3h-2
					v-2.5h5.2V88.6z M232.6,90c0.3,0,0.3-0.1,0.4-0.7c0.2,0.1,0.6,0.2,0.8,0.3c-0.1,0.9-0.4,1.1-1.1,1.1h-1.3c-1,0-1.3-0.2-1.3-1V89
					h0.9v0.8c0,0.2,0.1,0.2,0.4,0.2H232.6z M233.5,86.8h-3.3v0.3h3.3V86.8z M233.5,87.7h-3.3V88h3.3V87.7z M230.8,84.6
					c0.1,0.2,0.2,0.4,0.2,0.6h1.6c0.1-0.2,0.2-0.4,0.2-0.6H230.8z M234.4,88.8c0.4,0.4,0.8,1,1,1.4l-0.8,0.4c-0.1-0.4-0.5-1-0.9-1.5
					L234.4,88.8z"/>
				<path d="M243.9,89.8c0,0.5-0.1,0.8-0.5,1c-0.3,0.2-0.8,0.2-1.5,0.2c0-0.3-0.2-0.7-0.3-1c0.4,0,1,0,1.1,0c0.1,0,0.2,0,0.2-0.2
					v-1.4c-0.2,0.2-0.4,0.5-0.5,0.7c-0.8-0.5-1.4-1.2-1.7-2.2c-0.4,1-0.9,1.7-1.8,2.2c-0.1-0.1-0.3-0.4-0.4-0.6v2.4h-1v-5.7h2.9
					c0-0.2,0-0.4-0.1-0.6h-1.4v-0.8h2.2c0,0.5,0.1,1,0.1,1.5h2.7V89.8z M238.3,88.2c0.8-0.4,1.3-1.2,1.6-2.1h-1.6V88.2z M241.4,86.1
					c0.3,0.9,0.8,1.6,1.5,2v-2H241.4z"/>
				<path d="M250,86.1c0,0.1-0.1,0.1-0.1,0.2c0.9,0.9,2,1.5,3.2,2c-0.2,0.2-0.5,0.5-0.6,0.8c-0.3-0.1-0.6-0.3-0.8-0.4v2.2h-1v-0.2
					H248v0.2H247v-2.1c-0.3,0.1-0.6,0.3-0.9,0.4c-0.1-0.2-0.4-0.6-0.6-0.8c1.5-0.5,2.9-1.4,3.6-2.6L250,86.1z M246.9,85.7h-0.9V84h3
					c-0.1-0.2-0.2-0.4-0.2-0.5l1-0.2c0.1,0.2,0.2,0.5,0.3,0.7h2.8v1.7h-1v-0.9h-5V85.7z M248.8,85.3c-0.5,0.7-1.3,1.4-2.1,1.8
					c-0.1-0.2-0.5-0.6-0.6-0.7c0.7-0.3,1.4-0.8,1.8-1.4L248.8,85.3z M250.7,89.8V89H248v0.9H250.7z M250.8,88.1
					c-0.5-0.3-0.9-0.7-1.4-1.1c-0.4,0.4-0.8,0.8-1.3,1.1H250.8z M250.5,85.1c0.7,0.4,1.6,1,2,1.5l-0.7,0.6c-0.4-0.4-1.3-1.1-2-1.5
					L250.5,85.1z"/>
				<path d="M258.9,86.5c0.5,1.6,1.5,2.8,3,3.4c-0.2,0.2-0.6,0.6-0.7,0.9c-1.5-0.7-2.4-1.9-3-3.4c-0.4,1.3-1.3,2.6-3,3.4
					c-0.2-0.3-0.4-0.6-0.7-0.8c1.8-0.8,2.6-2.2,2.9-3.5h-2.8v-1h2.9c0.1-0.8,0.1-1.5,0.1-2.2h1c0,0.7,0,1.4-0.1,2.2h3.2v1H258.9z"/>
				<path d="M267.6,83.6c0,0-0.1,0.1-0.1,0.2c0.7,0.6,2.1,1.2,3.3,1.5c-0.2,0.2-0.5,0.5-0.6,0.7c-0.2,0-0.3-0.1-0.5-0.1v2.1h-5.6v-2
					c-0.2,0.1-0.3,0.1-0.5,0.2c-0.1-0.2-0.4-0.6-0.5-0.7c1.5-0.3,2.9-1,3.6-2L267.6,83.6z M269.4,85.7c-0.4-0.1-0.7-0.3-1.1-0.5v0.2
					h-2.8v-0.2c-0.3,0.2-0.6,0.3-1,0.4H269.4z M264.6,88.1h4.7v2.7h-1v-0.2h-2.8v0.2h-0.9V88.1z M265.5,87.3c0-0.2-0.1-0.6-0.3-0.8
					l0.6-0.2h-0.9v1H265.5z M265.5,88.8v0.3h2.8v-0.3H265.5z M268.3,90v-0.3h-2.8V90H268.3z M266.5,86.3h-0.6
					c0.1,0.3,0.3,0.6,0.3,0.9l-0.5,0.2h0.8V86.3z M267.7,84.8c-0.2-0.2-0.5-0.3-0.7-0.5c-0.2,0.2-0.4,0.4-0.7,0.5H267.7z
					 M267.3,86.3v1h0.7l-0.5-0.1c0.1-0.2,0.2-0.6,0.3-0.9H267.3z M268.9,86.3H268l0.6,0.2c-0.2,0.3-0.3,0.6-0.4,0.9h0.7V86.3z"/>
			</g>
		</g>
		<g>
			<g>
				<path d="M221.2,34.7H219v-0.8h5.3v0.8h-2.2v6.4h-0.9V34.7z"/>
				<path d="M228.1,41.1l-0.1-0.6h0c-0.3,0.4-0.8,0.8-1.6,0.8c-1,0-1.6-0.7-1.6-1.5c0-1.2,1.1-1.9,3.1-1.9v-0.1
					c0-0.4-0.1-1.2-1.2-1.2c-0.5,0-1,0.1-1.3,0.4l-0.2-0.6c0.4-0.3,1-0.5,1.7-0.5c1.6,0,2,1.1,2,2.1v1.9c0,0.4,0,0.9,0.1,1.2H228.1z
					 M228,38.5c-1,0-2.2,0.2-2.2,1.2c0,0.6,0.4,0.9,0.9,0.9c0.7,0,1.1-0.4,1.2-0.9c0-0.1,0.1-0.2,0.1-0.3V38.5z"/>
				<path d="M232.4,34.5c0,0.3-0.2,0.6-0.6,0.6c-0.3,0-0.6-0.3-0.6-0.6c0-0.3,0.2-0.6,0.6-0.6C232.2,33.9,232.4,34.2,232.4,34.5z
					 M231.4,41.1V36h0.9v5.1H231.4z"/>
				<path d="M235.5,36l0.7,2.6c0.1,0.6,0.3,1.1,0.4,1.6h0c0.1-0.5,0.3-1.1,0.5-1.6l0.8-2.6h0.8l0.8,2.6c0.2,0.6,0.3,1.2,0.5,1.7h0
					c0.1-0.5,0.2-1.1,0.4-1.7l0.7-2.6h0.9l-1.7,5.1h-0.8l-0.8-2.4c-0.2-0.6-0.3-1.1-0.5-1.7h0c-0.1,0.6-0.3,1.1-0.5,1.7l-0.8,2.4
					h-0.8l-1.5-5.1H235.5z"/>
				<path d="M246.7,41.1l-0.1-0.6h0c-0.3,0.4-0.8,0.8-1.6,0.8c-1,0-1.6-0.7-1.6-1.5c0-1.2,1.1-1.9,3.1-1.9v-0.1
					c0-0.4-0.1-1.2-1.2-1.2c-0.5,0-1,0.1-1.3,0.4l-0.2-0.6c0.4-0.3,1-0.5,1.7-0.5c1.6,0,2,1.1,2,2.1v1.9c0,0.4,0,0.9,0.1,1.2H246.7z
					 M246.6,38.5c-1,0-2.2,0.2-2.2,1.2c0,0.6,0.4,0.9,0.9,0.9c0.7,0,1.1-0.4,1.2-0.9c0-0.1,0.1-0.2,0.1-0.3V38.5z"/>
				<path d="M250,37.3c0-0.5,0-1,0-1.4h0.8l0.1,0.8h0c0.3-0.5,0.8-1,1.7-1c0.7,0,1.8,0.4,1.8,2.2v3.1h-0.9v-3c0-0.8-0.3-1.5-1.2-1.5
					c-0.6,0-1.1,0.4-1.3,1c0,0.1-0.1,0.3-0.1,0.4v3.1H250V37.3z"/>
				<path d="M224.8,53.3c-0.3,0.2-1,0.3-1.9,0.3c-2,0-3.5-1.3-3.5-3.6c0-2.2,1.5-3.8,3.7-3.8c0.9,0,1.5,0.2,1.7,0.3l-0.2,0.8
					c-0.3-0.2-0.8-0.3-1.4-0.3c-1.7,0-2.8,1.1-2.8,2.9c0,1.8,1,2.9,2.7,2.9c0.6,0,1.1-0.1,1.5-0.3L224.8,53.3z"/>
				<path d="M226.9,50c0-0.6,0-1.1,0-1.6h0.8l0,1h0c0.2-0.7,0.8-1.1,1.4-1.1c0.1,0,0.2,0,0.3,0v0.9c-0.1,0-0.2,0-0.3,0
					c-0.7,0-1.1,0.5-1.3,1.2c0,0.1,0,0.3,0,0.4v2.7h-0.9V50z"/>
				<path d="M231.8,51.2c0,1.3,0.8,1.8,1.8,1.8c0.7,0,1.1-0.1,1.4-0.3l0.2,0.7c-0.3,0.1-0.9,0.3-1.7,0.3c-1.6,0-2.5-1-2.5-2.6
					c0-1.5,0.9-2.8,2.4-2.8c1.7,0,2.1,1.5,2.1,2.4c0,0.2,0,0.3,0,0.4H231.8z M234.5,50.5c0-0.6-0.2-1.5-1.3-1.5
					c-0.9,0-1.4,0.9-1.4,1.5H234.5z"/>
				<path d="M240.4,53.6l-0.1-0.6h0c-0.3,0.4-0.8,0.8-1.6,0.8c-1,0-1.6-0.7-1.6-1.5c0-1.2,1.1-1.9,3.1-1.9v-0.1
					c0-0.4-0.1-1.2-1.2-1.2c-0.5,0-1,0.1-1.3,0.4l-0.2-0.6c0.4-0.3,1-0.5,1.7-0.5c1.6,0,2,1.1,2,2.1v1.9c0,0.4,0,0.9,0.1,1.2H240.4z
					 M240.3,50.9c-1,0-2.2,0.2-2.2,1.2c0,0.6,0.4,0.9,0.9,0.9c0.7,0,1.1-0.4,1.2-0.9c0-0.1,0.1-0.2,0.1-0.3V50.9z"/>
				<path d="M244.8,47v1.5h1.3v0.7h-1.3v2.8c0,0.6,0.2,1,0.7,1c0.2,0,0.4,0,0.5-0.1l0,0.7c-0.2,0.1-0.5,0.1-0.8,0.1
					c-0.4,0-0.8-0.1-1-0.4c-0.3-0.3-0.4-0.7-0.4-1.3v-2.8h-0.8v-0.7h0.8v-1.2L244.8,47z"/>
				<path d="M249.2,47c0,0.3-0.2,0.6-0.6,0.6c-0.3,0-0.6-0.3-0.6-0.6c0-0.3,0.2-0.6,0.6-0.6C249,46.4,249.2,46.7,249.2,47z
					 M248.2,53.6v-5.1h0.9v5.1H248.2z"/>
				<path d="M252,48.4l1,2.9c0.2,0.5,0.3,0.9,0.4,1.3h0c0.1-0.4,0.3-0.8,0.4-1.3l1-2.9h1l-2,5.1H253l-2-5.1H252z"/>
				<path d="M258.2,51.2c0,1.3,0.8,1.8,1.8,1.8c0.7,0,1.1-0.1,1.4-0.3l0.2,0.7c-0.3,0.1-0.9,0.3-1.7,0.3c-1.6,0-2.5-1-2.5-2.6
					c0-1.5,0.9-2.8,2.4-2.8c1.7,0,2.1,1.5,2.1,2.4c0,0.2,0,0.3,0,0.4H258.2z M260.9,50.5c0-0.6-0.2-1.5-1.3-1.5
					c-0.9,0-1.4,0.9-1.4,1.5H260.9z"/>
				<path d="M224.8,65.8c-0.3,0.2-1,0.3-1.9,0.3c-2,0-3.5-1.3-3.5-3.6c0-2.2,1.5-3.8,3.7-3.8c0.9,0,1.5,0.2,1.7,0.3l-0.2,0.8
					c-0.3-0.2-0.8-0.3-1.4-0.3c-1.7,0-2.8,1.1-2.8,2.9c0,1.8,1,2.9,2.7,2.9c0.6,0,1.1-0.1,1.5-0.3L224.8,65.8z"/>
				<path d="M231.3,63.4c0,1.9-1.3,2.7-2.6,2.7c-1.4,0-2.5-1-2.5-2.6c0-1.7,1.1-2.7,2.5-2.7C230.3,60.8,231.3,61.9,231.3,63.4z
					 M227.2,63.5c0,1.1,0.6,2,1.6,2c0.9,0,1.6-0.8,1.6-2c0-0.9-0.4-2-1.5-2C227.7,61.5,227.2,62.5,227.2,63.5z"/>
				<path d="M233.2,62.3c0-0.5,0-1,0-1.4h0.8l0.1,0.8h0c0.3-0.5,0.8-1,1.7-1c0.7,0,1.8,0.4,1.8,2.2V66h-0.9v-3
					c0-0.8-0.3-1.5-1.2-1.5c-0.6,0-1.1,0.4-1.3,1c0,0.1-0.1,0.3-0.1,0.4V66h-0.9V62.3z"/>
				<path d="M241.2,59.4v1.5h1.3v0.7h-1.3v2.8c0,0.6,0.2,1,0.7,1c0.2,0,0.4,0,0.5-0.1l0,0.7c-0.2,0.1-0.5,0.1-0.8,0.1
					c-0.4,0-0.8-0.1-1-0.4c-0.3-0.3-0.4-0.7-0.4-1.3v-2.8h-0.8v-0.7h0.8v-1.2L241.2,59.4z"/>
				<path d="M245.1,63.6c0,1.3,0.8,1.8,1.8,1.8c0.7,0,1.1-0.1,1.4-0.3l0.2,0.7c-0.3,0.1-0.9,0.3-1.7,0.3c-1.6,0-2.5-1-2.5-2.6
					c0-1.5,0.9-2.8,2.4-2.8c1.7,0,2.1,1.5,2.1,2.4c0,0.2,0,0.3,0,0.4H245.1z M247.8,63c0-0.6-0.2-1.5-1.3-1.5
					c-0.9,0-1.4,0.9-1.4,1.5H247.8z"/>
				<path d="M250.9,62.3c0-0.5,0-1,0-1.4h0.8l0.1,0.8h0c0.3-0.5,0.8-1,1.7-1c0.7,0,1.8,0.4,1.8,2.2V66h-0.9v-3
					c0-0.8-0.3-1.5-1.2-1.5c-0.6,0-1.1,0.4-1.3,1c0,0.1-0.1,0.3-0.1,0.4V66h-0.9V62.3z"/>
				<path d="M258.8,59.4v1.5h1.3v0.7h-1.3v2.8c0,0.6,0.2,1,0.7,1c0.2,0,0.4,0,0.5-0.1l0,0.7c-0.2,0.1-0.5,0.1-0.8,0.1
					c-0.4,0-0.8-0.1-1-0.4c-0.3-0.3-0.4-0.7-0.4-1.3v-2.8h-0.8v-0.7h0.8v-1.2L258.8,59.4z"/>
				<path d="M219.8,71.4h3.8v0.8h-2.9v2.4h2.7v0.8h-2.7v3.2h-0.9V71.4z"/>
				<path d="M226.2,76.1c0,1.3,0.8,1.8,1.8,1.8c0.7,0,1.1-0.1,1.4-0.3l0.2,0.7c-0.3,0.1-0.9,0.3-1.7,0.3c-1.6,0-2.5-1-2.5-2.6
					c0-1.5,0.9-2.8,2.4-2.8c1.7,0,2.1,1.5,2.1,2.4c0,0.2,0,0.3,0,0.4H226.2z M228.9,75.5c0-0.6-0.2-1.5-1.3-1.5
					c-0.9,0-1.4,0.9-1.4,1.5H228.9z"/>
				<path d="M231.8,77.6c0.3,0.2,0.8,0.4,1.2,0.4c0.7,0,1-0.3,1-0.8c0-0.4-0.3-0.7-1-0.9c-0.9-0.3-1.4-0.8-1.4-1.5
					c0-0.8,0.7-1.5,1.8-1.5c0.5,0,1,0.1,1.3,0.3l-0.2,0.7c-0.2-0.1-0.6-0.3-1-0.3c-0.6,0-0.9,0.3-0.9,0.7c0,0.4,0.3,0.6,1,0.9
					c0.9,0.3,1.3,0.8,1.3,1.5c0,0.9-0.7,1.5-1.9,1.5c-0.6,0-1.1-0.1-1.4-0.4L231.8,77.6z"/>
				<path d="M238.3,71.9v1.5h1.3v0.7h-1.3v2.8c0,0.6,0.2,1,0.7,1c0.2,0,0.4,0,0.5-0.1l0,0.7c-0.2,0.1-0.5,0.1-0.8,0.1
					c-0.4,0-0.8-0.1-1-0.4c-0.3-0.3-0.4-0.7-0.4-1.3v-2.8h-0.8v-0.7h0.8v-1.2L238.3,71.9z"/>
			</g>
		</g>
	</g>
	<g>
		<path d="M203.2,53.5h-11.1v-0.2V37.6v0c2.8,0,8.6,0,9,0c0.1,0,0.1,0,0.1-0.1l2.1-3.7c0.1-0.1,0-0.2-0.1-0.2h-11.1h0h-1.3h-2h-0.6
			c-0.1,0-0.2,0.1-0.2,0.2v56.6c0,0.1,0.1,0.2,0.2,0.2h3.8c0.1,0,0.2-0.1,0.2-0.2V57.5c2.8,0,8.6,0,9,0c0.1,0,0.1,0,0.1-0.1l2.1-3.7
			C203.4,53.6,203.3,53.5,203.2,53.5z"/>
		<path d="M46.7,33.5H28.5c-0.1,0-0.2,0.1-0.1,0.2l2.1,3.7c0,0.1,0.1,0.1,0.1,0.1h4.9v52.5c0,0.2,0.1,0.3,0.3,0.3h3.4
			c0.2,0,0.3-0.1,0.3-0.3V37.6c0,0,4.4,0,5.1,0c0.1,0,0.1,0,0.1-0.1l2.1-3.7C46.9,33.6,46.8,33.5,46.7,33.5z"/>
		<path d="M177.1,40l1.1-0.4C174.7,24.4,167.9,15,160.3,15c-3.5,0-6.8,2-9.7,5.6c-0.4,0.4-0.7,0.8-1.1,1.3c-0.4,0.4-0.7,0.8-1.1,1.3
			c-0.4,0.4-0.7,0.8-1.1,1.3c-0.4,0.4-0.7,0.8-1.1,1.3c-0.4,0.4-0.7,0.8-1.1,1.3c-0.4,0.4-0.7,0.8-1.1,1.3c-0.3,0.3-0.6,0.7-1,1.1
			c-3.4-7.4-7.9-11.5-12.8-11.5c-2.7,0-5.2,1.3-7.5,3.6c-1.1,0.6-2.1,1.4-3.1,2.4c-1.1,0.6-2.1,1.4-3.1,2.4
			c-1.1,0.5-2.1,1.4-3.1,2.4c-1.1,0.5-2.1,1.3-3.1,2.4c-0.3,0.1-0.6,0.3-0.9,0.5c-2.2-3.8-4.9-6.2-7.7-7c-0.9-0.3-1.7-0.5-2.6-0.5
			c-1.9,0-3.8,0.8-5.5,2.2c-4.3-11.3-10.6-18-17.3-18c-12.7,0-23.1,24-23.1,53.5c0,29.5,10.4,53.5,23.1,53.5c0.4,0,0.7,0,1.1-0.1
			c6.3-0.6,11.6-6.3,15.8-17c0.1-0.3,0.2-0.6,0.4-0.9c1.7,1.4,3.6,2.2,5.5,2.2c0.9,0,1.7-0.2,2.6-0.5c2.8-0.8,5.5-3.2,7.7-7
			c0.1,0.1,0.2,0.1,0.3,0.2c0.2,0.1,0.4,0.2,0.5,0.3c1,1.1,2,1.9,3.1,2.4c1,1,2,1.8,3.1,2.4c1,1,2,1.8,3.1,2.4c0.9,1,1.9,1.7,3,2.3
			c2.3,2.4,4.9,3.7,7.6,3.7c4.9,0,9.5-4.3,12.9-11.8c0.3,0.4,0.6,0.7,0.9,1c0.4,0.5,0.7,0.9,1.1,1.3c0.4,0.5,0.7,0.9,1.1,1.3
			c0.4,0.5,0.7,0.9,1.1,1.3c0.4,0.5,0.7,0.9,1.1,1.3c0.4,0.5,0.7,0.9,1.1,1.3c0.4,0.5,0.7,0.9,1.1,1.3c2.9,3.6,6.2,5.6,9.7,5.6
			c7.4,0,14.2-9.2,17.7-24l-1.1-0.4c-3.4,14.4-9.8,23.3-16.7,23.3c-0.8,0-1.6-0.1-2.4-0.4c0.4,0,0.7,0.1,1.1,0.1
			c7.2,0,13.7-8.9,17.2-23.2l-1-0.3c-3.3,13.9-9.5,22.5-16.1,22.5c-0.9,0-1.8-0.2-2.7-0.5c0.4,0.1,0.9,0.1,1.3,0.1
			c6.9,0,13.3-8.6,16.6-22.5l-1-0.3c-3.2,13.4-9.2,21.7-15.6,21.7c-1,0-1.9-0.2-2.8-0.5c0.5,0.1,1,0.1,1.4,0.1
			c6.7,0,12.8-8.3,16.1-21.7l-1-0.3c-3.1,13-8.9,21-15.1,21c-1,0-2-0.2-2.9-0.6c0.5,0.1,1,0.2,1.5,0.2c6.5,0,12.4-8,15.5-20.9
			l-0.9-0.3c-3,12.5-8.6,20.2-14.6,20.2c-1,0-2-0.2-3-0.6c0.5,0.1,1.1,0.2,1.6,0.2c6.2,0,11.9-7.7,14.9-20.1l-0.9-0.3
			c-2.9,12-8.3,19.5-14.1,19.5c-1,0-2.1-0.2-3.1-0.7c0.5,0.1,1.1,0.2,1.7,0.2c6,0,11.5-7.4,14.4-19.3l-0.8-0.3
			c-2.8,11.6-7.9,18.7-13.5,18.7c-1.1,0-2.1-0.3-3.1-0.8c0,0,0,0,0,0c0.6,0.1,1.2,0.2,1.8,0.2c5.8,0,11-7.1,13.8-18.6l-0.8-0.3
			c-2.7,11.1-7.6,18-13,18c-0.8,0-1.6-0.1-2.3-0.4c0-0.1-0.1-0.2-0.1-0.2c0.4,0.1,0.7,0.1,1.1,0.1c5.5,0,10.6-6.8,13.3-17.8
			l-0.8-0.3c-2.6,10.6-7.3,17.2-12.5,17.2c-0.5,0-1-0.1-1.5-0.2c-0.1-0.2-0.1-0.3-0.2-0.4c0.1,0,0.2,0,0.3,0c5.3,0,10.1-6.5,12.7-17
			l-0.7-0.2c-2.5,10.2-7,16.5-12,16.5c-0.2,0-0.5,0-0.7,0c-0.1-0.2-0.2-0.4-0.3-0.6c4.9-0.3,9.3-6.4,11.7-16.2l-0.7-0.2
			c-2.4,9.6-6.7,15.6-11.3,15.7c-0.1-0.3-0.2-0.5-0.3-0.8c4.4-0.9,8.2-6.6,10.4-15.3l-0.7-0.2c-2.1,8.6-5.9,14.1-10,14.9
			c-0.1-0.3-0.2-0.7-0.4-1c3.8-1.3,7.1-6.6,9.1-14.3l-0.6-0.2c-1.9,7.6-5.1,12.6-8.7,13.9c-0.1-0.3-0.2-0.7-0.3-1
			c0-0.1,0-0.1,0.1-0.2c3.2-1.8,6-6.4,7.6-13.1l-0.6-0.2c-1.5,6.1-3.9,10.5-6.7,12.4c0.3-0.9,0.5-1.8,0.8-2.7
			c1.9-2.3,3.5-5.7,4.6-10.1l-0.6-0.2c-0.9,3.7-2.2,6.7-3.6,8.8c0-0.1,0-0.1,0-0.2c0.2-0.8,0.4-1.6,0.6-2.4l0,0
			c0.1-0.2,0.1-0.5,0.2-0.7c0.1-0.4,0.2-0.9,0.3-1.3c0.2-0.6,0.4-1.3,0.5-2c0.2-0.6,0.3-1.3,0.5-1.9l0,0c0.1-0.2,0.1-0.5,0.2-0.7
			l-0.7-0.2c-1.1,4.3-2.7,7.7-4.6,9.7c-1.6-6.6-2.5-14.1-2.5-22.2c0-8,0.9-15.4,2.4-22c1.8,1.9,3.4,5.1,4.5,9.2c0,0,0,0.1,0,0.1l0,0
			c0.1,0.3,0.1,0.5,0.2,0.8l0.7-0.2c-0.1-0.3-0.1-0.6-0.2-0.9c-0.2-0.9-0.4-1.7-0.6-2.5c-0.2-0.7-0.3-1.3-0.5-2
			c-0.2-0.7-0.3-1.3-0.5-1.9c-0.1-0.4-0.2-0.7-0.3-1.1c-0.1-0.6-0.3-1.2-0.4-1.8c1.6,2.3,3,5.6,3.9,9.7l0.6-0.2
			c-1.1-4.8-2.8-8.5-4.9-10.9c-0.3-0.9-0.5-1.8-0.8-2.7c2.9,1.9,5.5,6.6,7,13.1l0.6-0.2c-1.7-7.1-4.5-12-7.9-13.8c0,0,0,0,0,0
			c0.1-0.4,0.3-0.8,0.4-1.2c3.7,1.3,7,6.6,8.8,14.6l0.6-0.2c-1.9-8.1-5.3-13.6-9.2-15c0.1-0.3,0.2-0.7,0.4-1
			c4.2,0.7,8.1,6.5,10.1,15.5l0.7-0.2c-2.1-9.1-6.1-15.1-10.6-16c0.1-0.3,0.2-0.5,0.3-0.8c4.8,0.1,9.2,6.3,11.5,16.4l0.7-0.2
			c-2.4-10.1-6.9-16.5-11.9-16.8c0.1-0.2,0.2-0.4,0.3-0.6c0.2,0,0.5,0,0.7,0c5.1,0,9.7,6.5,12.1,17.1l0.7-0.2
			c-2.5-10.9-7.4-17.7-12.9-17.7c-0.1,0-0.2,0-0.3,0c0.1-0.2,0.1-0.3,0.2-0.4c0.5-0.1,1-0.2,1.5-0.2c5.3,0,10.1,6.8,12.6,17.9
			l0.8-0.3c-2.7-11.4-7.8-18.4-13.4-18.4c-0.4,0-0.7,0-1.1,0.1c0-0.1,0.1-0.2,0.1-0.2c0.8-0.3,1.5-0.4,2.3-0.4
			c5.5,0,10.5,7.1,13.2,18.6l0.8-0.3c-2.8-11.9-8.1-19.2-14-19.2c-0.6,0-1.2,0.1-1.8,0.2c0,0,0,0,0,0c1-0.5,2.1-0.8,3.1-0.8
			c5.7,0,10.9,7.4,13.7,19.4l0.8-0.3c-2.9-12.3-8.4-20-14.5-20c-0.6,0-1.1,0.1-1.7,0.2c1-0.5,2-0.7,3.1-0.7
			c5.9,0,11.3,7.7,14.2,20.1l0.9-0.3c-3-12.8-8.7-20.8-15.1-20.8c-0.5,0-1.1,0.1-1.6,0.2c1-0.4,2-0.6,3-0.6c6.2,0,11.8,8,14.7,20.9
			l0.9-0.3c-3.1-13.3-9-21.5-15.7-21.5c-0.5,0-1,0.1-1.5,0.2c0.9-0.4,1.9-0.6,2.9-0.6c6.4,0,12.2,8.3,15.3,21.6l1-0.3
			c-3.2-13.8-9.4-22.3-16.2-22.3c-0.5,0-1,0.1-1.4,0.1c0.9-0.3,1.9-0.5,2.8-0.5c6.6,0,12.6,8.6,15.8,22.4l1-0.3
			c-3.3-14.3-9.7-23.1-16.8-23.1c-0.4,0-0.9,0-1.3,0.1c0.9-0.3,1.8-0.5,2.7-0.5c6.8,0,13,8.9,16.3,23.1l1-0.3
			c-3.4-14.7-10-23.9-17.3-23.9c-0.4,0-0.7,0-1.1,0.1c0.8-0.2,1.6-0.4,2.4-0.4C167.3,16.1,173.7,25.2,177.1,40z M139.9,90
			c0.2,0.2,0.4,0.5,0.6,0.7c-0.4,0.3-0.8,0.6-1.2,0.8C139.4,91,139.7,90.5,139.9,90z M139.3,32c0.3,0.2,0.6,0.4,0.9,0.6
			c-0.2,0.2-0.3,0.3-0.4,0.5C139.6,32.7,139.5,32.4,139.3,32z M138.8,30.9c-0.4-0.8-0.8-1.5-1.2-2.2c1.2,0.6,2.4,1.6,3.5,2.9
			c-0.1,0.2-0.3,0.3-0.4,0.5C140.1,31.6,139.5,31.2,138.8,30.9z M111.3,78.7c-1-5.2-1.6-11-1.6-17.1c0-5.8,0.5-11.4,1.5-16.4
			l0.5-0.1c-0.1-0.4-0.2-0.7-0.3-1.1c0,0,0,0,0-0.1c0.1,0.4,0.2,0.8,0.3,1.2l1.1-0.2c0,0,0,0,0-0.1l0,0c-0.9,5.2-1.5,10.9-1.5,16.9
			c0,6.2,0.6,12.1,1.6,17.4l-0.3-0.1c0,0,0,0,0,0l-1.1-0.2c0,0.2-0.1,0.4-0.1,0.5c0,0,0,0,0-0.1c0-0.2,0.1-0.3,0.1-0.5L111.3,78.7z
			 M109.5,78.3c-0.1,0.4-0.2,0.8-0.3,1.2c0-0.1,0-0.1,0-0.2C109.2,78.9,109.3,78.6,109.5,78.3l-0.6-0.2c-1-5-1.6-10.6-1.6-16.4
			c0-5.7,0.5-11,1.5-15.8l0.8-0.2c-0.1-0.6-0.3-1.1-0.4-1.6c0-0.1,0-0.1,0-0.2c0.1,0.6,0.3,1.2,0.4,1.8l0.8-0.2
			c-0.9,5-1.4,10.5-1.4,16.2c0,6,0.6,11.7,1.6,16.9c-0.2,1.1-0.5,2.1-0.8,3.1c0,0,0-0.1,0-0.1c0.3-1,0.6-2,0.8-3L109.5,78.3z
			 M107,91C107,91,106.9,91,107,91c0.1-0.3,0.3-0.5,0.4-0.8c0,0,0,0,0,0C107.3,90.5,107.1,90.7,107,91z M105,85.4
			c0-0.1-0.1-0.1-0.1-0.2c0.2-0.4,0.4-0.9,0.5-1.4c0,0.1,0.1,0.2,0.1,0.3C105.3,84.6,105.2,85,105,85.4z M105.2,87.4
			c0,0.1-0.1,0.1-0.1,0.2c0,0-0.1-0.1-0.1-0.1c0-0.1,0.1-0.2,0.1-0.2C105.2,87.4,105.2,87.4,105.2,87.4z M93.3,61.6
			c0-6.7,0.9-13,2.5-18c0.3,0.9,0.6,1.8,0.9,2.8c-1.1,4.5-1.8,9.7-1.8,15.2c0,5.4,0.6,10.5,1.7,14.8c-0.3,1-0.6,2-0.9,2.9
			C94.2,74.3,93.3,68.2,93.3,61.6z M95.6,91.7c-0.1,0-0.1,0.1-0.2,0.1c0-0.1,0.1-0.2,0.1-0.3C95.5,91.6,95.6,91.6,95.6,91.7z
			 M95.4,31.5c0.1,0,0.1,0.1,0.1,0.1c0,0-0.1,0.1-0.1,0.1C95.5,31.7,95.5,31.6,95.4,31.5z M105.5,39.2c0,0.1-0.1,0.2-0.1,0.2
			c-0.2-0.5-0.4-1-0.6-1.4c0-0.1,0.1-0.1,0.1-0.2C105.1,38.3,105.3,38.7,105.5,39.2z M105,35.7C105.1,35.7,105.1,35.7,105,35.7
			c0.1,0,0.2,0.1,0.2,0.2c0,0,0,0.1-0.1,0.1C105.1,35.9,105.1,35.8,105,35.7z M108.8,42.4c0,0.1,0,0.1,0,0.2
			c-0.2-0.8-0.5-1.7-0.7-2.5c0-0.1,0-0.1,0.1-0.2C108.3,40.7,108.5,41.5,108.8,42.4z M108.6,38.4C108.6,38.4,108.6,38.4,108.6,38.4
			c0.3,0.6,0.5,1.3,0.7,2c0,0,0,0.1,0,0.1C109,39.8,108.8,39.1,108.6,38.4z M108.3,44.6c0,0.1,0,0.2-0.1,0.3c-0.2-1-0.5-2-0.8-2.9
			c0-0.1,0-0.2,0.1-0.2C107.8,42.6,108,43.6,108.3,44.6z M106.5,77.5c-1-4.8-1.6-10.1-1.6-15.8c0-5.6,0.6-10.9,1.5-15.6
			c0,0.1,0.1,0.2,0.1,0.3l0.9-0.2c-0.2-0.7-0.3-1.4-0.5-2.1c0-0.1,0.1-0.2,0.1-0.3c0.2,0.8,0.4,1.6,0.6,2.4L108,46
			c-0.9,4.8-1.4,10.1-1.4,15.6c0,5.8,0.6,11.3,1.5,16.2l-0.7-0.2c-0.1,0.6-0.3,1.2-0.5,1.9c0-0.1-0.1-0.2-0.1-0.4
			c0.1-0.5,0.3-1,0.4-1.6L106.5,77.5z M104.3,76.9c0,0.2-0.1,0.3-0.1,0.5c-1.1-4.7-1.7-10.1-1.7-15.8c0-5.2,0.5-10.2,1.4-14.6l0.2,0
			c0-0.2-0.1-0.3-0.1-0.5c0-0.2,0.1-0.4,0.1-0.6c0.1,0.3,0.2,0.7,0.2,1l0.8-0.2c-0.2-0.9-0.4-1.7-0.6-2.5c0-0.2,0.1-0.3,0.1-0.5
			c0.3,0.9,0.5,1.9,0.7,2.9l0.1,0c-0.9,4.6-1.4,9.7-1.4,15c0,5.6,0.6,10.9,1.5,15.6l-0.3-0.1c-0.2,0.8-0.4,1.6-0.6,2.4
			c0-0.2-0.1-0.3-0.1-0.5c0.2-0.7,0.3-1.3,0.5-2L104.3,76.9z M103.8,38.5c-0.1-0.3-0.3-0.6-0.4-0.9c0.1-0.1,0.1-0.1,0.2-0.2
			c0.1,0.3,0.2,0.6,0.4,0.8C103.9,38.3,103.9,38.4,103.8,38.5z M104.4,42.5c0,0.1-0.1,0.3-0.1,0.4c-0.2-0.7-0.4-1.4-0.7-2
			c0-0.1,0.1-0.2,0.1-0.4C103.9,41.1,104.2,41.8,104.4,42.5z M103.8,44.4c0,0.2-0.1,0.4-0.1,0.6c-0.2-0.9-0.5-1.7-0.7-2.5
			c0.1-0.2,0.1-0.3,0.2-0.5C103.4,42.8,103.6,43.6,103.8,44.4z M103.1,81.2c-0.1-0.1-0.1-0.3-0.2-0.4c0.2-0.8,0.5-1.6,0.7-2.4
			c0,0.2,0.1,0.4,0.1,0.6C103.6,79.7,103.4,80.4,103.1,81.2z M103.3,83.8c-0.1,0.4-0.3,0.7-0.4,1c-0.1-0.1-0.1-0.2-0.2-0.3
			c0.2-0.4,0.3-0.7,0.4-1.1C103.2,83.6,103.3,83.7,103.3,83.8z M102.6,79.4c-0.1-0.2-0.1-0.4-0.2-0.6c0.2-0.7,0.4-1.5,0.6-2.3
			l-0.7-0.2c-0.1,0.4-0.2,0.7-0.3,1c-0.1-0.2-0.1-0.5-0.2-0.7c0-0.1,0.1-0.3,0.1-0.4l-0.2,0c-1-4.4-1.6-9.4-1.6-14.6
			c0-5,0.5-9.8,1.4-14l0.5-0.1c-0.1-0.3-0.2-0.6-0.2-1c0.1-0.3,0.1-0.5,0.2-0.8c0.1,0.5,0.3,1.1,0.4,1.6l0.7-0.2
			c-0.2-1-0.5-1.9-0.7-2.9c0.1-0.2,0.1-0.4,0.2-0.6c0.3,0.9,0.5,1.9,0.7,2.9c-1,4.5-1.5,9.6-1.5,15c0,5.4,0.6,10.5,1.5,15
			C103.1,77.6,102.8,78.5,102.6,79.4z M96.8,82.8c0,0,0-0.1-0.1-0.1c0.1-0.5,0.3-1.1,0.4-1.7l0.3-1.2c0,0,0,0,0,0
			c0.1,0.3,0.2,0.5,0.3,0.7C97.4,81.3,97.1,82.1,96.8,82.8z M97,84.9c0,0,0,0.1-0.1,0.1C96.9,85,96.9,84.9,97,84.9
			C97,84.8,97,84.9,97,84.9z M96.9,77.9C96.9,77.9,96.9,77.9,96.9,77.9C96.9,77.9,96.9,77.9,96.9,77.9L96.9,77.9z M97,78.8
			c0-0.1,0-0.2,0.1-0.2c0,0.1,0,0.1,0.1,0.2c0,0,0,0,0,0L97,78.8z M98,81.4c0.1,0.2,0.2,0.4,0.2,0.6c-0.3,0.7-0.6,1.4-0.9,2.1
			c-0.1-0.2-0.2-0.3-0.2-0.5C97.5,82.9,97.8,82.2,98,81.4z M97.1,41c0.2,0.6,0.5,1.1,0.7,1.7c-0.1,0.2-0.2,0.5-0.2,0.7
			c0-0.1-0.1-0.3-0.1-0.4c-0.2-0.7-0.3-1.3-0.5-2L97.1,41z M96.8,38.1c0.1,0.1,0.1,0.2,0.2,0.3c0,0.1,0,0.1-0.1,0.2
			C96.9,38.4,96.8,38.2,96.8,38.1z M97.1,39.7c0.1-0.2,0.2-0.4,0.2-0.5c0.3,0.6,0.6,1.3,0.9,2c-0.1,0.2-0.2,0.4-0.2,0.6
			C97.8,41.1,97.5,40.4,97.1,39.7z M102.2,42.6c-0.1,0.2-0.1,0.3-0.2,0.5c-0.2-0.6-0.4-1.2-0.6-1.8c0.1-0.1,0.1-0.3,0.2-0.4
			C101.8,41.5,102,42,102.2,42.6z M102.1,40c0.1-0.1,0.1-0.2,0.2-0.4c0.2,0.5,0.4,0.9,0.5,1.4c-0.1,0.1-0.1,0.3-0.2,0.4
			C102.4,40.9,102.2,40.4,102.1,40z M100.8,42.9c0.1-0.2,0.1-0.4,0.2-0.5c0.2,0.7,0.4,1.4,0.7,2.1c-0.1,0.2-0.1,0.4-0.2,0.7
			C101.2,44.4,101,43.6,100.8,42.9z M101.1,46.5c-0.1,0.3-0.1,0.6-0.2,0.9c-0.2-1-0.5-1.9-0.7-2.8c0.1-0.2,0.1-0.4,0.2-0.7
			C100.6,44.8,100.8,45.7,101.1,46.5z M101.7,39.1c-0.3-0.6-0.5-1.2-0.8-1.7c0.1-0.1,0.1-0.2,0.2-0.3c0.3,0.5,0.5,1.1,0.8,1.7
			C101.8,38.9,101.8,39,101.7,39.1z M101.2,40c-0.1,0.1-0.1,0.3-0.2,0.4c-0.2-0.6-0.5-1.3-0.8-1.8c0.1-0.1,0.1-0.2,0.2-0.4
			C100.7,38.8,101,39.4,101.2,40z M100.6,41.4c-0.1,0.2-0.1,0.3-0.2,0.5c-0.2-0.7-0.5-1.4-0.8-2c0.1-0.2,0.1-0.3,0.2-0.4
			C100.1,40,100.4,40.7,100.6,41.4z M100,42.9c-0.1,0.2-0.1,0.4-0.2,0.6c-0.2-0.8-0.5-1.5-0.8-2.2c0.1-0.2,0.1-0.4,0.2-0.6
			C99.5,41.4,99.8,42.1,100,42.9z M99.4,44.6c-0.1,0.3-0.2,0.5-0.2,0.8c-0.2-0.9-0.5-1.7-0.8-2.5c0.1-0.2,0.2-0.4,0.2-0.6
			C98.9,43,99.2,43.7,99.4,44.6z M99.3,39c-0.3-0.6-0.6-1.2-0.9-1.8c0.1-0.1,0.1-0.3,0.2-0.4c0.3,0.6,0.6,1.2,0.9,1.8
			C99.4,38.8,99.3,38.9,99.3,39z M98.9,39.9c-0.1,0.2-0.2,0.3-0.2,0.5c-0.3-0.7-0.6-1.3-0.9-2c0.1-0.2,0.1-0.3,0.2-0.5
			C98.3,38.6,98.6,39.2,98.9,39.9z M98.1,43.9c0.3,0.8,0.5,1.7,0.8,2.6c-0.1,0.3-0.2,0.6-0.3,1c-0.2-1-0.5-1.9-0.8-2.8
			C97.9,44.4,98,44.1,98.1,43.9z M99.2,48c0,0.1,0,0.2,0.1,0.2l0.6-0.1c-0.1-0.5-0.2-1-0.3-1.4c0.1-0.3,0.2-0.6,0.2-0.8
			c0.2,0.7,0.4,1.4,0.5,2.1l0.5-0.1c-0.9,4.2-1.4,8.8-1.4,13.8c0,5.5,0.6,10.6,1.7,15.2c-0.2,0.9-0.4,1.7-0.7,2.5
			c-0.1-0.2-0.1-0.4-0.2-0.7c0.3-0.9,0.5-1.7,0.7-2.7l-0.7-0.2c-0.1,0.6-0.3,1.1-0.4,1.6c-0.1-0.3-0.2-0.6-0.2-0.9
			c0.1-0.3,0.2-0.6,0.2-0.9l-0.5-0.1c-1-4.1-1.6-8.9-1.6-13.9C97.7,56.7,98.3,52,99.2,48z M101.4,78.2c0.1,0.2,0.1,0.4,0.2,0.7
			c-0.2,0.7-0.4,1.4-0.6,2c-0.1-0.2-0.1-0.3-0.2-0.5C101,79.7,101.2,79,101.4,78.2z M99.4,78.7c-0.2,0.8-0.5,1.6-0.8,2.4
			c-0.1-0.2-0.2-0.4-0.2-0.6c0.3-0.8,0.5-1.6,0.8-2.5C99.3,78.2,99.3,78.5,99.4,78.7z M98.9,76.8c-0.2,0.9-0.5,1.8-0.8,2.7
			c-0.1-0.3-0.2-0.5-0.2-0.8c0.3-0.9,0.5-1.8,0.8-2.8C98.7,76.1,98.8,76.5,98.9,76.8z M98.6,82.9c0.1,0.2,0.1,0.3,0.2,0.5
			c-0.3,0.7-0.6,1.3-0.9,1.9c-0.1-0.2-0.2-0.3-0.2-0.5C98,84.2,98.4,83.6,98.6,82.9z M99.3,84.2c0.1,0.1,0.1,0.3,0.2,0.4
			c-0.3,0.6-0.6,1.2-0.9,1.8c-0.1-0.1-0.1-0.3-0.2-0.4C98.7,85.5,99,84.9,99.3,84.2z M99.2,82.5c-0.1-0.2-0.2-0.4-0.2-0.6
			c0.3-0.7,0.5-1.4,0.8-2.2c0.1,0.2,0.1,0.4,0.2,0.6C99.8,81.1,99.5,81.9,99.2,82.5z M100.4,81.4c0.1,0.2,0.1,0.3,0.2,0.5
			c-0.3,0.7-0.5,1.3-0.8,2c-0.1-0.1-0.1-0.3-0.2-0.4C99.9,82.8,100.2,82.1,100.4,81.4z M101.1,82.8c0.1,0.1,0.1,0.3,0.2,0.4
			c-0.3,0.6-0.5,1.2-0.8,1.8c-0.1-0.1-0.1-0.2-0.2-0.4C100.5,84.1,100.8,83.5,101.1,82.8z M101.7,84.1c0.1,0.1,0.1,0.2,0.2,0.3
			c-0.3,0.6-0.5,1.2-0.8,1.7c-0.1-0.1-0.1-0.2-0.2-0.3C101.2,85.3,101.5,84.8,101.7,84.1z M101.6,82.4c-0.1-0.1-0.1-0.3-0.2-0.4
			c0.2-0.6,0.4-1.1,0.6-1.8c0.1,0.2,0.1,0.3,0.2,0.5C102,81.3,101.8,81.8,101.6,82.4z M102.6,81.9c0.1,0.1,0.1,0.3,0.2,0.4
			c-0.2,0.5-0.3,0.9-0.5,1.3c-0.1-0.1-0.1-0.2-0.2-0.3C102.2,82.9,102.4,82.4,102.6,81.9z M103.2,39.9c-0.2-0.4-0.3-0.8-0.5-1.2
			c0.1-0.1,0.1-0.2,0.2-0.3c0.2,0.4,0.3,0.7,0.5,1.1C103.3,39.7,103.3,39.8,103.2,39.9z M103.1,36.9c-0.2-0.5-0.5-1-0.8-1.5
			c0.1-0.1,0.1-0.1,0.2-0.2c0.3,0.5,0.5,1,0.8,1.5C103.2,36.7,103.2,36.8,103.1,36.9z M102.6,37.7c-0.1,0.1-0.1,0.2-0.2,0.3
			c-0.3-0.6-0.5-1.1-0.8-1.6c0.1-0.1,0.1-0.2,0.2-0.2C102.1,36.6,102.3,37.1,102.6,37.7z M102,34.8c-0.3-0.5-0.6-1-0.9-1.4
			c0.1-0.1,0.1-0.1,0.2-0.2c0.3,0.4,0.6,0.9,0.9,1.4C102.1,34.6,102.1,34.7,102,34.8z M101.4,35.5c-0.1,0.1-0.1,0.2-0.2,0.2
			c-0.3-0.5-0.6-1-0.9-1.5c0.1-0.1,0.1-0.1,0.2-0.2C100.8,34.4,101.1,34.9,101.4,35.5z M100.8,36.4c-0.1,0.1-0.1,0.2-0.2,0.3
			c-0.3-0.6-0.6-1.1-0.9-1.6c0.1-0.1,0.1-0.2,0.2-0.3C100.2,35.3,100.5,35.9,100.8,36.4z M100.1,37.5c-0.1,0.1-0.1,0.2-0.2,0.4
			c-0.3-0.6-0.6-1.2-0.9-1.7c0.1-0.1,0.1-0.2,0.2-0.3C99.5,36.3,99.8,36.9,100.1,37.5z M99.2,34.5c-0.3-0.5-0.7-1-1-1.4
			c0.1-0.1,0.1-0.1,0.2-0.2c0.4,0.4,0.7,0.9,1,1.3C99.4,34.3,99.3,34.4,99.2,34.5z M98.8,35.2c-0.1,0.1-0.1,0.2-0.2,0.3
			c-0.3-0.5-0.7-1-1-1.4c0.1-0.1,0.1-0.2,0.2-0.3C98.1,34.2,98.5,34.7,98.8,35.2z M98.2,36.2c-0.1,0.1-0.1,0.2-0.2,0.4
			c-0.3-0.5-0.7-1.1-1-1.5c0.1-0.1,0.1-0.2,0.2-0.3C97.5,35.1,97.8,35.6,98.2,36.2z M97.6,37.2c-0.1,0.1-0.1,0.3-0.2,0.4
			c-0.2-0.3-0.4-0.7-0.6-1c-0.1-0.4-0.2-0.7-0.2-1.1c0,0,0,0,0,0C96.9,36.1,97.2,36.7,97.6,37.2z M97,47.9c0.1,0.3,0.1,0.5,0.2,0.8
			l0.5-0.1c-0.1-0.6-0.3-1.3-0.5-1.9c0.1-0.3,0.2-0.7,0.3-1c0.2,0.9,0.5,1.8,0.7,2.8l0.1,0c-0.9,4-1.4,8.4-1.4,13.2
			c0,5,0.6,9.6,1.5,13.7l-0.4-0.1c-0.2,0.8-0.4,1.6-0.6,2.3c-0.1-0.3-0.2-0.6-0.3-1c0.1-0.5,0.2-1,0.4-1.5l0,0c0,0,0,0,0,0l-0.7-0.2
			c0,0,0,0,0,0c-0.9-4-1.3-8.5-1.3-13.3C95.6,56.7,96.1,52,97,47.9z M96.8,86.5c0.2-0.3,0.3-0.6,0.5-0.9c0.1,0.1,0.1,0.3,0.2,0.4
			c-0.3,0.6-0.7,1.1-1,1.6c0,0,0,0,0,0c0-0.2,0.1-0.4,0.1-0.6L96.8,86.5z M97.9,86.8c0.1,0.1,0.1,0.3,0.2,0.4c-0.3,0.5-0.7,1-1,1.5
			c-0.1-0.1-0.1-0.2-0.2-0.3C97.3,87.8,97.6,87.3,97.9,86.8z M98.6,87.8c0.1,0.1,0.1,0.2,0.2,0.3c-0.3,0.5-0.7,1-1,1.4
			c-0.1-0.1-0.1-0.2-0.2-0.3C97.9,88.8,98.2,88.3,98.6,87.8z M99.2,88.8c0.1,0.1,0.1,0.2,0.2,0.3c-0.3,0.5-0.7,0.9-1,1.4
			c-0.1-0.1-0.1-0.1-0.2-0.2C98.6,89.8,98.9,89.3,99.2,88.8z M99.2,87.5c-0.1-0.1-0.1-0.2-0.2-0.3c0.3-0.5,0.6-1.1,0.9-1.7
			c0.1,0.1,0.1,0.2,0.2,0.4C99.8,86.4,99.5,87,99.2,87.5z M100.6,86.6c0.1,0.1,0.1,0.2,0.2,0.3c-0.3,0.6-0.6,1.1-0.9,1.6
			c-0.1-0.1-0.1-0.2-0.2-0.3C100,87.7,100.3,87.1,100.6,86.6z M101.3,87.6c0.1,0.1,0.1,0.2,0.2,0.2c-0.3,0.5-0.6,1-0.9,1.5
			c-0.1-0.1-0.1-0.1-0.2-0.2C100.7,88.6,101,88.1,101.3,87.6z M102,88.5c0.1,0.1,0.1,0.1,0.2,0.2c-0.3,0.5-0.6,1-0.9,1.4
			c-0.1-0.1-0.1-0.1-0.2-0.2C101.4,89.5,101.7,89,102,88.5z M101.8,87.2c-0.1-0.1-0.1-0.2-0.2-0.2c0.3-0.5,0.5-1.1,0.8-1.6
			c0.1,0.1,0.1,0.2,0.2,0.3C102.3,86.1,102.1,86.7,101.8,87.2z M103.1,86.4c0,0.1,0.1,0.1,0.1,0.2c-0.3,0.5-0.5,1-0.8,1.5
			c-0.1-0.1-0.1-0.1-0.2-0.2C102.6,87.4,102.9,86.9,103.1,86.4z M103.9,87.3c0,0.1,0.1,0.1,0.1,0.2c-0.2,0.5-0.5,1-0.8,1.4
			c0,0-0.1-0.1-0.1-0.1C103.4,88.3,103.6,87.8,103.9,87.3z M103.5,85.7c0.1-0.3,0.2-0.5,0.4-0.8c0,0.1,0.1,0.2,0.1,0.3
			c-0.1,0.3-0.2,0.5-0.3,0.8C103.6,85.8,103.5,85.7,103.5,85.7z M103.7,82.7c0-0.1-0.1-0.2-0.1-0.4c0.2-0.6,0.4-1.3,0.6-2
			c0,0.1,0.1,0.3,0.1,0.4C104.2,81.5,104,82.1,103.7,82.7z M107.6,39c-0.2-0.6-0.4-1.1-0.6-1.6c0,0,0-0.1,0-0.1
			c0.2,0.5,0.4,1,0.6,1.6C107.6,38.9,107.6,39,107.6,39z M107.1,40.5c0,0.1,0,0.1-0.1,0.2c-0.2-0.7-0.4-1.3-0.7-1.9
			c0-0.1,0-0.1,0.1-0.2C106.7,39.3,106.9,39.9,107.1,40.5z M106.6,42.4c0,0.1-0.1,0.2-0.1,0.3c-0.2-0.8-0.5-1.5-0.7-2.3
			c0-0.1,0.1-0.2,0.1-0.3C106.1,40.9,106.3,41.6,106.6,42.4z M106,37.9c-0.2-0.4-0.3-0.8-0.5-1.1c0,0,0.1-0.1,0.1-0.1
			c0.2,0.4,0.3,0.7,0.5,1.1C106,37.8,106,37.9,106,37.9z M106,44.4c0,0.2-0.1,0.3-0.1,0.5c-0.2-0.9-0.5-1.8-0.7-2.7
			c0-0.1,0.1-0.2,0.1-0.4C105.6,42.7,105.8,43.5,106,44.4z M104.9,40.7c0,0.1-0.1,0.2-0.1,0.3c-0.2-0.6-0.4-1.1-0.6-1.7
			c0-0.1,0.1-0.2,0.1-0.3C104.5,39.6,104.7,40.2,104.9,40.7z M104.2,36.6c0,0,0.1-0.1,0.1-0.1c0.1,0.2,0.2,0.4,0.3,0.5
			c0,0.1-0.1,0.1-0.1,0.2C104.4,37,104.3,36.8,104.2,36.6z M104.7,35.1c-0.2-0.5-0.5-0.9-0.7-1.3c0,0,0.1-0.1,0.1-0.1
			C104.3,34.1,104.6,34.5,104.7,35.1C104.8,35,104.7,35.1,104.7,35.1z M104,35.8c0,0-0.1,0.1-0.1,0.1c-0.2-0.5-0.5-1-0.8-1.4
			c0,0,0.1-0.1,0.1-0.1C103.5,34.9,103.8,35.3,104,35.8z M103.6,33.2c-0.3-0.4-0.6-0.9-0.8-1.2c0,0,0,0,0.1-0.1
			C103.1,32.3,103.4,32.7,103.6,33.2C103.7,33.1,103.6,33.1,103.6,33.2z M102.9,33.8C102.8,33.8,102.8,33.9,102.9,33.8
			c-0.4-0.4-0.7-0.8-1-1.2c0,0,0.1-0.1,0.1-0.1C102.3,32.9,102.6,33.3,102.9,33.8z M102.3,31.4c-0.3-0.4-0.6-0.8-1-1.1
			c0,0,0,0,0.1,0C101.8,30.5,102.1,30.9,102.3,31.4C102.4,31.3,102.4,31.3,102.3,31.4z M101.6,31.9c0,0-0.1,0.1-0.1,0.1
			c-0.3-0.4-0.7-0.8-1-1.2c0,0,0.1-0.1,0.1-0.1C100.9,31.1,101.3,31.5,101.6,31.9z M100.8,32.6c-0.1,0.1-0.1,0.1-0.2,0.2
			c-0.3-0.4-0.7-0.9-1-1.2c0,0,0.1-0.1,0.1-0.1C100.2,31.8,100.5,32.2,100.8,32.6z M100.1,33.4c-0.1,0.1-0.1,0.1-0.2,0.2
			c-0.3-0.5-0.7-0.9-1-1.3c0.1-0.1,0.1-0.1,0.2-0.2C99.4,32.5,99.8,32.9,100.1,33.4z M99.2,31c-0.4-0.4-0.8-0.7-1.2-1
			c0,0,0.1-0.1,0.1-0.1c0.4,0.3,0.8,0.6,1.2,1C99.3,30.9,99.3,31,99.2,31z M98.6,31.6c-0.1,0.1-0.1,0.1-0.2,0.2
			c-0.4-0.4-0.8-0.8-1.2-1.1c0,0,0.1-0.1,0.1-0.1C97.8,30.9,98.2,31.2,98.6,31.6z M97.9,32.4c-0.1,0.1-0.1,0.1-0.2,0.2
			c-0.4-0.4-0.8-0.8-1.2-1.1c0-0.1,0.1-0.1,0.1-0.2C97.2,31.6,97.6,32,97.9,32.4z M97.3,33.2c-0.1,0.1-0.1,0.2-0.2,0.3
			c-0.4-0.4-0.8-0.8-1.2-1.2c0.1-0.1,0.1-0.2,0.2-0.2C96.5,32.4,96.9,32.8,97.3,33.2z M96.7,34.1c-0.1,0.1-0.1,0.2-0.2,0.3
			c-0.1-0.2-0.2-0.3-0.4-0.5c-0.1-0.2-0.1-0.5-0.2-0.7C96.2,33.5,96.4,33.8,96.7,34.1z M96.1,89.4c0.1-0.2,0.3-0.3,0.4-0.5
			c0.1,0.1,0.1,0.2,0.2,0.3c-0.3,0.3-0.5,0.6-0.8,0.9C96,89.8,96,89.6,96.1,89.4z M97.1,89.8c0.1,0.1,0.1,0.2,0.2,0.3
			c-0.4,0.4-0.8,0.8-1.2,1.2C96.1,91.2,96,91.1,96,91C96.3,90.7,96.7,90.3,97.1,89.8z M97.7,90.7c0.1,0.1,0.1,0.1,0.2,0.2
			c-0.4,0.4-0.8,0.8-1.2,1.1c0-0.1-0.1-0.1-0.1-0.2C97,91.5,97.4,91.1,97.7,90.7z M98.4,91.5c0.1,0.1,0.1,0.1,0.2,0.2
			c-0.4,0.4-0.8,0.7-1.2,1c0,0-0.1-0.1-0.1-0.1C97.7,92.3,98.1,91.9,98.4,91.5z M99.2,92.3c0,0,0.1,0.1,0.1,0.1
			c-0.4,0.4-0.8,0.7-1.2,1c0,0-0.1-0.1-0.1-0.1C98.4,93,98.8,92.7,99.2,92.3z M99.1,91.2C99,91.1,99,91.1,98.9,91
			c0.4-0.4,0.7-0.8,1-1.3c0.1,0.1,0.1,0.1,0.2,0.2C99.8,90.4,99.4,90.8,99.1,91.2z M100.7,90.5c0,0.1,0.1,0.1,0.1,0.2
			c-0.3,0.4-0.7,0.9-1,1.2c0,0-0.1-0.1-0.1-0.1C100,91.4,100.4,91,100.7,90.5z M101.5,91.3c0,0,0.1,0.1,0.1,0.1
			c-0.3,0.4-0.7,0.8-1,1.2c0,0-0.1-0.1-0.1-0.1C100.8,92.1,101.1,91.7,101.5,91.3z M102.3,91.9c0,0,0.1,0.1,0.1,0.1
			c-0.3,0.4-0.6,0.8-1,1.1c0,0-0.1,0-0.1-0.1C101.7,92.7,102,92.3,102.3,91.9z M102,90.8c0,0-0.1-0.1-0.1-0.1
			c0.3-0.4,0.6-0.9,0.9-1.3c0,0,0.1,0.1,0.1,0.1C102.6,90,102.3,90.4,102,90.8z M103.6,90.1c0,0,0.1,0.1,0.1,0.1
			c-0.3,0.4-0.6,0.8-0.8,1.2c0,0-0.1-0.1-0.1-0.1C103.1,91,103.3,90.6,103.6,90.1z M104.5,90.8C104.5,90.8,104.6,90.8,104.5,90.8
			c-0.2,0.5-0.4,0.8-0.7,1.2c0,0-0.1,0-0.1,0C104,91.6,104.2,91.2,104.5,90.8z M104.1,89.6c0,0-0.1-0.1-0.1-0.1
			c0.3-0.4,0.5-0.9,0.7-1.3c0,0,0.1,0.1,0.1,0.1C104.6,88.8,104.3,89.2,104.1,89.6z M104.2,86.7c0.1-0.2,0.2-0.4,0.2-0.5
			c0,0.1,0.1,0.1,0.1,0.2c-0.1,0.2-0.1,0.3-0.2,0.5C104.3,86.8,104.3,86.7,104.2,86.7z M104.3,84.2c0-0.1-0.1-0.2-0.1-0.3
			c0.2-0.5,0.4-1.1,0.6-1.6c0,0.1,0.1,0.2,0.1,0.3C104.7,83.1,104.5,83.6,104.3,84.2z M105.3,81.5c0-0.1-0.1-0.2-0.1-0.4
			c0.3-0.9,0.5-1.8,0.7-2.7c0,0.2,0.1,0.3,0.1,0.5C105.8,79.7,105.6,80.6,105.3,81.5z M105.9,83.1c0-0.1-0.1-0.2-0.1-0.3
			c0.2-0.7,0.5-1.5,0.7-2.3c0,0.1,0.1,0.2,0.1,0.3C106.3,81.7,106.1,82.4,105.9,83.1z M106.1,85.6c-0.1,0.4-0.3,0.7-0.5,1
			c0-0.1-0.1-0.1-0.1-0.2c0.2-0.4,0.3-0.7,0.5-1.1C106,85.4,106.1,85.5,106.1,85.6z M107,82.5c0,0.1,0,0.2,0.1,0.2
			c-0.2,0.6-0.4,1.3-0.7,1.9c0-0.1-0.1-0.1-0.1-0.2C106.6,83.8,106.8,83.2,107,82.5z M107,88.6c0.1-0.2,0.2-0.4,0.3-0.6
			c0,0,0,0.1,0,0.1C107.2,88.3,107.1,88.5,107,88.6C107,88.6,107,88.6,107,88.6z M107,86c0,0,0-0.1-0.1-0.1c0.2-0.5,0.4-1.1,0.6-1.6
			c0,0.1,0,0.1,0.1,0.2C107.5,85,107.3,85.5,107,86z M107.5,81.6c0-0.1,0-0.2-0.1-0.3c0.3-0.9,0.5-1.9,0.8-2.9c0,0.1,0,0.2,0.1,0.3
			C108,79.7,107.8,80.7,107.5,81.6z M108.7,80.8c0,0.1,0,0.1,0,0.2c-0.2,0.8-0.5,1.6-0.7,2.4c0-0.1,0-0.1-0.1-0.2
			C108.2,82.4,108.5,81.6,108.7,80.8z M109.3,82.8c0,0,0,0.1,0,0.1c-0.2,0.7-0.5,1.4-0.7,2.1c0,0,0-0.1,0-0.1
			C108.8,84.2,109,83.5,109.3,82.8z M110.5,44.8c0,0,0,0.1,0,0.1c-0.2-1.1-0.5-2.1-0.8-3.1c0,0,0-0.1,0-0.1
			C110,42.7,110.2,43.7,110.5,44.8z M110.2,39.8C110.2,39.8,110.2,39.8,110.2,39.8c0.3,0.8,0.5,1.7,0.8,2.6c0,0,0,0,0,0
			C110.7,41.5,110.5,40.6,110.2,39.8z M111,80.9C111,80.9,111,80.9,111,80.9c-0.2,1-0.5,1.8-0.8,2.7c0,0,0,0,0-0.1
			C110.5,82.7,110.7,81.8,111,80.9z M111.1,84.3c-0.1,0.3-0.2,0.7-0.3,1c0,0,0,0,0,0C110.9,85,111,84.6,111.1,84.3z M113.6,79.2
			c-1-5.4-1.6-11.3-1.6-17.5c0-6,0.5-11.7,1.5-16.9l0.7-0.1c-0.1-0.5-0.2-1-0.4-1.5c0.8-3.8,1.8-7.4,3-10.5c0.6,0.5,1.3,1.1,1.9,1.8
			c-2.8,7.2-4.6,16.8-4.6,27.3c0,10.5,1.7,20,4.5,27.2c-0.6,0.7-1.2,1.3-1.8,1.8c-1.2-3.1-2.2-6.6-3-10.5c0.1-0.3,0.2-0.6,0.2-0.9
			L113.6,79.2z M114.9,61.7c0-10.2,1.6-19.6,4.3-26.6c0.6,0.7,1.1,1.6,1.6,2.5c-2.4,6.5-3.8,14.9-3.8,24.1c0,9.1,1.4,17.5,3.8,24.1
			c-0.5,0.9-1,1.8-1.6,2.5C116.5,81.2,114.9,71.9,114.9,61.7z M132.4,81c-0.3,1.2-0.7,2.3-1,3.4c-3.1-4.9-5.1-13.3-5.1-22.7
			c0-6.6,1-12.7,2.6-17.4l0.1,0c0,0,0-0.1,0-0.1c0.7-2,1.5-3.8,2.4-5.2c0.4,1.1,0.7,2.2,1,3.4c-2.4,4.6-4,11.6-4,19.4
			C128.4,69.5,130,76.4,132.4,81z M120.6,61.7c0-7,0.9-13.5,2.4-18.8c0.4,1.2,0.8,2.5,1.1,3.9l0.1,0.6c-1,4.3-1.5,9.2-1.5,14.4
			c0,5.2,0.6,10.2,1.6,14.5l0,0c-0.4,1.5-0.8,3-1.2,4.3C121.5,75.1,120.6,68.6,120.6,61.7z M122.6,81.6c-0.4,1.2-0.9,2.3-1.4,3.3
			c-2.2-6.3-3.5-14.4-3.5-23.2c0-8.8,1.3-16.9,3.5-23.3c0.5,1,1,2.1,1.4,3.3c-1.8,5.6-2.8,12.5-2.8,20
			C119.9,69.1,120.9,76,122.6,81.6z M125,47.3c0.6-2.5,1.3-4.8,2.1-6.8c0.4,1.2,0.8,2.4,1.2,3.7c-1.7,4.8-2.6,10.9-2.6,17.5
			c0,6.6,1,12.6,2.6,17.4c-0.3,1.3-0.7,2.6-1.2,3.7c-2.2-5.5-3.6-12.9-3.6-21.2C123.5,56.5,124,51.6,125,47.3L125,47.3L125,47.3z
			 M124.6,45.7c-0.4-1.4-0.8-2.8-1.2-4c0.6-1.9,1.3-3.6,2-5.1c0.5,0.9,0.9,2,1.3,3C125.9,41.4,125.2,43.4,124.6,45.7z M124.6,77.7
			c0.6,2.2,1.3,4.3,2.1,6.1c-0.4,1.1-0.9,2.1-1.3,3c-0.7-1.5-1.4-3.3-2-5.1C123.8,80.4,124.3,79.1,124.6,77.7z M127.1,84.8
			c0.7,1.5,1.5,2.9,2.4,4c-0.5,0.9-0.9,1.8-1.4,2.6c-0.8-1-1.6-2.3-2.3-3.7C126.3,86.8,126.7,85.8,127.1,84.8z M127.5,83.9
			c0.4-1.1,0.8-2.3,1.2-3.5c0.7,1.9,1.5,3.5,2.4,4.9c-0.4,1-0.8,2-1.2,2.9C129,86.9,128.2,85.5,127.5,83.9z M128.7,43
			c-0.4-1.3-0.7-2.4-1.2-3.5c0.7-1.6,1.5-3.1,2.4-4.3c0.4,0.9,0.8,1.9,1.2,2.9C130.2,39.5,129.4,41.2,128.7,43z M127.1,38.6
			c-0.4-1.1-0.9-2-1.3-2.9c0.7-1.4,1.5-2.6,2.3-3.7c0.5,0.8,1,1.6,1.4,2.6C128.7,35.7,127.9,37,127.1,38.6z M125.4,34.9
			c-0.5-0.9-1-1.7-1.6-2.5c0.7-1.2,1.4-2.3,2.1-3.3c0.6,0.6,1.2,1.4,1.7,2.2C126.9,32.4,126.1,33.6,125.4,34.9z M125,35.8
			c-0.7,1.5-1.4,3.1-2,4.9c-0.4-1.1-0.9-2.2-1.4-3.1c0.6-1.5,1.2-3,1.9-4.3C124,34,124.5,34.8,125,35.8z M121.1,36.7
			c-0.5-0.9-1.1-1.7-1.6-2.4c0.5-1.3,1.1-2.5,1.6-3.6c0.6,0.5,1.2,1.2,1.8,2C122.3,33.9,121.7,35.2,121.1,36.7z M121.1,86.6
			c0.6,1.5,1.2,2.8,1.8,4.1c-0.6,0.8-1.2,1.4-1.8,2c-0.6-1.1-1.1-2.3-1.6-3.6C120.1,88.3,120.6,87.5,121.1,86.6z M121.6,85.8
			c0.5-0.9,1-2,1.4-3.1c0.6,1.8,1.3,3.4,2,4.8c-0.5,0.9-1,1.8-1.6,2.5C122.7,88.8,122.1,87.4,121.6,85.8z M125.4,88.4
			c0.7,1.3,1.5,2.5,2.3,3.5c-0.6,0.8-1.1,1.5-1.7,2.2c-0.7-1-1.5-2.1-2.1-3.3C124.4,90.1,124.9,89.3,125.4,88.4z M128.2,92.5
			c0.9,1,1.9,1.9,2.9,2.5c-0.6,0.8-1.3,1.5-1.9,2.1c-0.9-0.6-1.8-1.4-2.7-2.5C127,94.1,127.6,93.3,128.2,92.5z M128.6,91.9
			c0.5-0.8,1-1.6,1.5-2.5c0.9,1.1,1.9,2,3,2.6c-0.5,0.9-1,1.7-1.5,2.4C130.5,93.9,129.5,93,128.6,91.9z M130.4,88.8
			c0.4-0.9,0.8-1.8,1.2-2.8c0.9,1.3,1.9,2.2,3,2.9c-0.4,0.9-0.8,1.8-1.2,2.6C132.3,90.8,131.3,89.9,130.4,88.8z M131.9,85.2
			c0.4-1,0.7-2.1,1.1-3.2c0.9,1.5,1.9,2.7,2.9,3.5c-0.3,1-0.7,1.9-1,2.8C133.8,87.5,132.8,86.5,131.9,85.2z M136.4,86
			c0.3,0.4,0.6,0.7,0.9,1.1c0.4,0.5,0.7,0.9,1.1,1.3c0.2,0.2,0.3,0.4,0.5,0.6c-0.4,0.1-0.8,0.2-1.2,0.2c-0.8,0-1.6-0.2-2.4-0.6
			C135.8,87.7,136.1,86.9,136.4,86z M138.5,34.7c-0.4,0.4-0.7,0.8-1.1,1.3c-0.3,0.3-0.7,0.7-1,1.1c-0.3-0.8-0.6-1.5-0.9-2.3
			c0.8-0.4,1.5-0.6,2.3-0.6c0.3,0,0.6,0,0.9,0.1C138.7,34.4,138.6,34.6,138.5,34.7z M135.8,37.7c-0.2,0.2-0.4,0.5-0.6,0.8
			c-0.5,0.5-0.9,1-1.4,1.7c-0.3,0.4-0.6,0.8-0.8,1.3c-0.3-1.1-0.7-2.2-1.1-3.2c0.9-1.3,1.9-2.3,3-3C135.2,36,135.5,36.8,135.8,37.7z
			 M131.6,37.4c-0.4-1-0.8-1.9-1.2-2.8c0.9-1.2,1.9-2.1,3-2.6c0.4,0.8,0.8,1.7,1.2,2.6C133.5,35.2,132.5,36.2,131.6,37.4z
			 M130.1,33.9c-0.5-0.9-1-1.7-1.5-2.5c0.9-1.1,1.9-1.9,2.9-2.5c0.5,0.7,1,1.5,1.5,2.4C132,31.9,131,32.8,130.1,33.9z M128.2,30.8
			c-0.6-0.8-1.2-1.5-1.8-2.2c0.9-1,1.8-1.8,2.7-2.4c0.7,0.6,1.3,1.3,1.9,2.1C130.1,28.9,129.1,29.8,128.2,30.8z M129.3,25.3
			c-0.8-0.7-1.7-1.3-2.6-1.7c1.1-0.9,2.4-1.4,3.6-1.7c1.1,0.5,2.1,1.3,3.1,2.2c0,0,0,0,0,0C131.9,24.1,130.5,24.5,129.3,25.3z
			 M128.6,25.7c-0.9,0.6-1.8,1.5-2.7,2.5c-0.7-0.7-1.4-1.2-2.2-1.7c0.7-0.9,1.5-1.7,2.2-2.4C126.9,24.5,127.8,25,128.6,25.7z
			 M125.5,28.7c-0.7,0.9-1.4,2-2.1,3.2c-0.6-0.7-1.2-1.4-1.9-1.9c0.6-1,1.2-2,1.8-2.9C124.1,27.5,124.8,28.1,125.5,28.7z M121,29.5
			c-0.7-0.5-1.5-0.9-2.2-1.2c0.4-0.8,0.8-1.5,1.2-2.2c0.9,0,1.8,0.2,2.7,0.7C122.1,27.6,121.5,28.5,121,29.5z M120.6,30.2
			c-0.6,1.1-1.1,2.2-1.6,3.5c-0.6-0.7-1.2-1.3-1.9-1.8c0.4-1,0.8-2,1.3-2.9C119.2,29.3,119.9,29.7,120.6,30.2z M116.5,31.5
			c-0.3-0.2-0.6-0.4-0.9-0.5c0.4-0.8,0.8-1.6,1.3-2.3c0.3,0,0.6,0.1,0.9,0.1C117.3,29.7,116.9,30.6,116.5,31.5z M116.2,32.2
			c-1.1,2.8-2,5.9-2.8,9.3c-0.2-0.9-0.5-1.8-0.8-2.6c0.8-2.6,1.6-5.1,2.6-7.2C115.6,31.8,115.9,32,116.2,32.2z M112.2,37.7
			c-0.2-0.6-0.5-1.3-0.7-1.8c0.7-1.7,1.4-3.3,2.2-4.7c0.3,0,0.6,0.1,0.9,0.2C113.8,33.3,113,35.4,112.2,37.7z M112.2,85.6
			c0.7,2.3,1.5,4.4,2.4,6.3c-0.3,0.1-0.6,0.2-0.9,0.2c-0.8-1.4-1.5-3-2.2-4.7C111.8,86.8,112,86.2,112.2,85.6z M112.6,84.4
			c0.3-0.8,0.5-1.7,0.8-2.6c0.8,3.4,1.7,6.5,2.8,9.3c-0.3,0.2-0.6,0.4-0.9,0.5C114.3,89.5,113.4,87.1,112.6,84.4z M116.5,91.8
			c0.4,0.9,0.8,1.8,1.2,2.7c-0.3,0.1-0.6,0.1-0.8,0.1c-0.4-0.7-0.9-1.5-1.3-2.3C115.9,92.2,116.2,92,116.5,91.8z M117.1,91.4
			c0.6-0.5,1.3-1,1.9-1.7c0.5,1.2,1,2.4,1.6,3.4c-0.7,0.5-1.4,0.9-2.2,1.2C118,93.4,117.5,92.4,117.1,91.4z M120.9,93.8
			c0.6,1,1.1,1.9,1.7,2.8c-0.9,0.4-1.8,0.6-2.7,0.6c-0.4-0.7-0.8-1.4-1.2-2.2C119.5,94.7,120.2,94.3,120.9,93.8z M121.5,93.4
			c0.6-0.5,1.3-1.2,1.9-1.9c0.7,1.2,1.4,2.2,2.1,3.2c-0.7,0.7-1.4,1.2-2.2,1.6C122.7,95.4,122.1,94.4,121.5,93.4z M125.9,95.2
			c0.8,1,1.7,1.8,2.6,2.5c-0.8,0.7-1.7,1.2-2.6,1.5c-0.8-0.7-1.5-1.5-2.2-2.4C124.5,96.4,125.2,95.8,125.9,95.2z M129.2,98
			c1.3,0.8,2.6,1.2,4,1.2c-1,1-2,1.7-3.1,2.2c-1.2-0.3-2.4-0.9-3.5-1.7C127.5,99.3,128.3,98.8,129.2,98z M129.7,97.5
			c0.7-0.6,1.3-1.4,1.9-2.2c1,0.5,2.1,0.8,3.1,0.8c0.4,0,0.7,0,1.1-0.1c-0.6,0.9-1.2,1.7-1.9,2.4c-0.2,0-0.5,0.1-0.7,0.1
			C132.1,98.5,130.9,98.2,129.7,97.5z M134.8,95.4c-0.9,0-1.8-0.2-2.7-0.6c0.5-0.7,1-1.5,1.5-2.4c0.9,0.4,1.8,0.6,2.7,0.6
			c0.5,0,1-0.1,1.4-0.2c-0.4,0.8-0.9,1.6-1.3,2.3C135.9,95.3,135.4,95.4,134.8,95.4z M136.3,92.3c-0.8,0-1.6-0.2-2.3-0.5
			c0.4-0.8,0.8-1.6,1.2-2.5c0.9,0.4,1.7,0.7,2.7,0.7c0.4,0,0.9-0.1,1.3-0.2c-0.3,0.8-0.6,1.5-1,2.2C137.6,92.1,137,92.3,136.3,92.3z
			 M137.8,33.5c-0.9,0-1.8,0.2-2.6,0.6c-0.4-0.9-0.8-1.7-1.2-2.5c0.7-0.3,1.5-0.5,2.3-0.5c0.7,0,1.3,0.1,1.9,0.4
			c0.3,0.7,0.6,1.4,1,2.2C138.8,33.6,138.3,33.5,137.8,33.5z M137.8,30.6c-0.5-0.1-1-0.2-1.5-0.2c-0.9,0-1.8,0.2-2.6,0.6
			c-0.5-0.9-1-1.7-1.5-2.4c0.9-0.4,1.7-0.6,2.6-0.6c0.6,0,1.2,0.1,1.7,0.3C137,29,137.4,29.8,137.8,30.6z M134.8,27.3
			c-1,0-2.1,0.3-3.1,0.7c-0.6-0.8-1.3-1.5-1.9-2.2c1.1-0.6,2.3-0.9,3.5-0.9c0.3,0,0.5,0,0.8,0.1c0.6,0.7,1.3,1.5,1.9,2.4
			C135.6,27.3,135.2,27.3,134.8,27.3z M131.5,21.8c0.1,0,0.2,0,0.3,0c3.6,0,7,2.7,9.8,7.6c-2.2-2.9-4.6-4.7-7.2-5.1
			C133.5,23.2,132.5,22.4,131.5,21.8z M130.2,18.6c3.8,0,7.3,2.8,10.3,7.7c-2.6-3.5-5.6-5.4-8.8-5.4c-0.5,0-1,0.1-1.4,0.1
			c-1.1-0.5-2.3-0.8-3.5-0.8c-0.7,0-1.4,0.1-2.1,0.3C126.5,19.3,128.3,18.6,130.2,18.6z M123.1,22c1.2-0.6,2.4-1,3.7-1
			c0.8,0,1.6,0.1,2.3,0.4c-1.1,0.4-2.2,1-3.2,1.9c-0.8-0.3-1.7-0.5-2.6-0.5c-0.4,0-0.7,0-1.1,0.1C122.6,22.6,122.8,22.3,123.1,22z
			 M120.8,24.8c0.2-0.3,0.5-0.7,0.7-1c0.6-0.2,1.2-0.2,1.8-0.2c0.6,0,1.3,0.1,1.9,0.3c-0.7,0.7-1.4,1.4-2.1,2.3
			c-0.9-0.4-1.8-0.7-2.7-0.7C120.6,25.2,120.7,25,120.8,24.8z M120,24.4c0.1-0.1,0.3-0.1,0.4-0.2c-0.3,0.4-0.5,0.7-0.8,1.1
			c-0.2,0-0.3,0-0.5,0C119.4,25.1,119.7,24.7,120,24.4z M119.2,26.2c-0.4,0.6-0.7,1.3-1.1,2c-0.3-0.1-0.5-0.1-0.8-0.2
			c0.4-0.6,0.8-1.1,1.1-1.7C118.7,26.2,118.9,26.2,119.2,26.2z M116.9,26.8c0.2-0.1,0.3-0.1,0.5-0.2c-0.3,0.4-0.5,0.8-0.8,1.3
			c0,0-0.1,0-0.1,0c-0.2,0-0.3,0-0.5,0C116.2,27.5,116.6,27.2,116.9,26.8z M116.1,28.7c-0.4,0.7-0.8,1.4-1.1,2.1
			c-0.3-0.1-0.6-0.2-0.8-0.2c0.4-0.6,0.8-1.2,1.2-1.8C115.5,28.7,115.8,28.7,116.1,28.7z M113.7,29.3c0.2-0.1,0.4-0.2,0.5-0.2
			c-0.3,0.5-0.6,0.9-0.9,1.4c-0.1,0-0.3,0-0.4,0c-0.1,0-0.1,0-0.2,0C113.1,30,113.4,29.6,113.7,29.3z M112.9,31.1
			C113,31.1,113,31.2,112.9,31.1c-0.6,1.2-1.2,2.5-1.8,3.8c-0.2-0.4-0.4-0.8-0.6-1.2c0.5-0.9,1-1.8,1.6-2.6
			C112.4,31.2,112.7,31.1,112.9,31.1z M111.9,30.5C111.8,30.5,111.8,30.5,111.9,30.5C111.8,30.5,111.8,30.5,111.9,30.5
			C111.8,30.5,111.8,30.5,111.9,30.5z M110.6,31.7c0.2-0.1,0.4-0.2,0.6-0.2c-0.3,0.5-0.6,1-0.9,1.6c-0.1-0.2-0.2-0.4-0.3-0.6
			C110.2,32.2,110.4,31.9,110.6,31.7z M109.2,36.9c0.2,0.6,0.5,1.2,0.7,1.8c0,0,0,0,0,0C109.6,38,109.4,37.4,109.2,36.9
			C109.2,36.9,109.2,36.9,109.2,36.9z M108.8,36C108.8,36,108.8,36,108.8,36c-0.1-0.3-0.3-0.6-0.4-0.9
			C108.5,35.4,108.7,35.7,108.8,36z M107.8,33.9c0,0.1,0.1,0.1,0.1,0.2c0,0,0,0,0,0C107.9,34.1,107.9,34,107.8,33.9
			C107.8,33.9,107.8,33.9,107.8,33.9z M107.7,36c0.2,0.4,0.4,0.9,0.6,1.3c0,0,0,0.1,0,0.1C108,37,107.8,36.5,107.7,36
			C107.6,36.1,107.6,36,107.7,36z M107.3,35.3c-0.1-0.2-0.2-0.4-0.3-0.6c0,0,0,0,0,0C107.1,34.8,107.2,35,107.3,35.3
			C107.3,35.3,107.3,35.3,107.3,35.3z M106.9,32.3c0.1,0.1,0.1,0.2,0.2,0.4C107.1,32.6,107,32.4,106.9,32.3
			C106.9,32.3,106.9,32.3,106.9,32.3z M106.6,36.6c-0.1-0.3-0.3-0.6-0.4-0.9c0,0,0-0.1,0.1-0.1c0.1,0.3,0.3,0.6,0.4,0.9
			C106.7,36.5,106.6,36.5,106.6,36.6z M105.9,32.6c0.2,0.4,0.4,0.7,0.6,1.1c0,0,0,0,0,0C106.3,33.4,106.1,33,105.9,32.6
			C105.9,32.6,105.9,32.6,105.9,32.6z M105.6,34.4c-0.2-0.4-0.5-0.8-0.7-1.2c0,0,0,0,0.1,0C105.2,33.5,105.4,33.9,105.6,34.4
			C105.6,34.3,105.6,34.3,105.6,34.4z M104.8,31c0.2,0.3,0.5,0.7,0.7,1c0,0,0,0,0,0C105.2,31.7,105,31.3,104.8,31
			C104.8,31,104.8,31,104.8,31z M104.5,32.5c-0.3-0.4-0.5-0.8-0.8-1.2c0,0,0,0,0,0C104,31.7,104.3,32.1,104.5,32.5
			C104.5,32.5,104.5,32.5,104.5,32.5z M104.3,30.3C104.3,30.3,104.3,30.3,104.3,30.3c-0.1-0.1-0.3-0.3-0.4-0.4
			C104.1,30,104.2,30.2,104.3,30.3z M103.5,29.4c0.1,0.1,0.2,0.2,0.3,0.3C103.7,29.6,103.6,29.5,103.5,29.4
			C103.5,29.4,103.5,29.4,103.5,29.4z M102.4,29.7c0.3,0.3,0.6,0.7,0.9,1c0,0,0,0-0.1,0C103,30.4,102.7,30.1,102.4,29.7
			C102.4,29.7,102.4,29.7,102.4,29.7z M101.8,29.2C101.8,29.2,101.8,29.2,101.8,29.2c-0.2-0.2-0.4-0.4-0.6-0.5
			C101.4,28.8,101.6,29,101.8,29.2z M99.8,28.7c0.4,0.3,0.8,0.6,1.2,1c0,0,0,0,0,0C100.5,29.4,100.1,29,99.8,28.7
			C99.7,28.7,99.7,28.7,99.8,28.7z M98.9,29.3c0.4,0.3,0.8,0.6,1.2,1c0,0,0,0-0.1,0.1C99.6,30,99.2,29.6,98.9,29.3
			C98.8,29.3,98.9,29.3,98.9,29.3z M98.2,28.9c-0.1,0-0.1-0.1-0.2-0.1C98.1,28.8,98.2,28.8,98.2,28.9C98.2,28.9,98.2,28.9,98.2,28.9
			z M97.5,29.5C97.5,29.5,97.5,29.5,97.5,29.5c-0.4-0.2-0.8-0.4-1.1-0.6C96.8,29.1,97.1,29.3,97.5,29.5z M95.3,29.4
			c0.5,0.2,1,0.4,1.5,0.7c0,0-0.1,0.1-0.1,0.1C96.3,29.9,95.8,29.7,95.3,29.4C95.3,29.4,95.3,29.4,95.3,29.4z M96.2,30.9
			c0,0.1-0.1,0.1-0.1,0.2c-0.3-0.2-0.6-0.4-1-0.6c0-0.1,0-0.1-0.1-0.2C95.4,30.4,95.8,30.6,96.2,30.9z M92.4,98.2
			c0,0.1-0.1,0.2-0.1,0.3c-0.1,0.3-0.3,0.7-0.4,1c-3.9,8.8-9,14.2-14.5,14.8c-0.3,0-0.7,0.1-1,0.1C64,114.3,54,90.7,54,61.6
			S64,8.9,76.3,8.9c6.2,0,12.1,6.1,16.2,16.5c-3.9-8.3-9-13.1-14.5-13.1c-11.8,0-21.3,22.1-21.3,49.4c0,27.2,9.6,49.4,21.3,49.4
			c5.5,0,10.6-4.8,14.5-13C92.5,98,92.4,98.1,92.4,98.2z M83.9,89.6c0.2,0.2,0.5,0.4,0.7,0.6c0.2,0.2,0.5,0.4,0.7,0.6
			c0.2,0.2,0.5,0.4,0.7,0.6c0.2,0.2,0.5,0.4,0.7,0.6c0.2,0.2,0.5,0.4,0.7,0.6c0.1,0.1,0.3,0.2,0.4,0.3c-1,0.6-2.1,0.9-3.1,0.9
			c-7.5,0-13.5-14.4-13.5-32.1c0-17.7,6.1-32.1,13.5-32.1c1.1,0,2.1,0.3,3.2,0.9c-0.2,0.1-0.3,0.2-0.5,0.4c-0.3,0.2-0.5,0.4-0.7,0.6
			c-0.2,0.2-0.5,0.4-0.7,0.6c-0.3,0.2-0.5,0.4-0.7,0.6c-0.2,0.2-0.5,0.4-0.7,0.6c-0.2,0.1-0.3,0.2-0.5,0.4c-5.7,2.6-10,14.3-10,28.2
			C74.1,75.3,78.3,86.8,83.9,89.6z M84.9,28.8c-7.9,0-14.3,14.7-14.3,32.9c0,18.1,6.4,32.9,14.3,32.9c1.3,0,2.6-0.4,3.8-1.1
			c0.1,0.1,0.3,0.2,0.4,0.3c0.2,0.2,0.5,0.4,0.7,0.6c0,0,0,0,0,0c-2,2.3-4.3,3.6-6.6,3.6c-8.4,0-15.3-16.3-15.3-36.2
			c0-20,6.9-36.2,15.3-36.2c2.4,0,4.6,1.3,6.7,3.7c0,0,0,0-0.1,0c-0.3,0.2-0.5,0.4-0.7,0.6c-0.1,0.1-0.2,0.2-0.4,0.3
			C87.5,29.2,86.2,28.8,84.9,28.8z M89.3,88.8c-3.1-6.7-5.1-16.4-5.1-27.2c0-10.8,2-20.5,5.1-27.2c0.5,0.3,0.9,0.6,1.4,1
			c-3,6.6-4.9,15.9-4.9,26.3c0,10.3,1.9,19.6,4.9,26.2C90.2,88.2,89.8,88.6,89.3,88.8z M90.5,28.5c0,0-0.1,0.1-0.1,0.1
			c-2.2-2.6-4.7-4-7.3-4c-8.8,0-16,16.6-16,37c0,20.4,7.2,37,16,37c2.6,0,5-1.4,7.2-3.9c0.1,0,0.1,0.1,0.2,0.1
			c0.1,0.1,0.3,0.2,0.4,0.3c-2.8,4.4-6.1,6.9-9.5,6.9c-9.4,0-17.1-18.1-17.1-40.4s7.7-40.4,17.1-40.4c3.4,0,6.6,2.5,9.4,7
			C90.8,28.3,90.7,28.4,90.5,28.5z M81.5,20.5c-9.8,0-17.8,18.4-17.8,41.1c0,22.7,8,41.1,17.8,41.1c3.7,0,7.2-2.6,10.1-7.2
			c0.1,0.1,0.2,0.1,0.3,0.2c-3.3,6.6-7.6,10.3-12,10.3c-10.4,0-18.8-20-18.8-44.5c0-24.5,8.4-44.5,18.8-44.5
			c4.5,0,8.8,3.8,12.1,10.4c-0.1,0.1-0.3,0.2-0.4,0.3C88.5,23.2,85,20.5,81.5,20.5z M91.2,87.3c-2.9-6.4-4.7-15.6-4.7-25.7
			c0-10.2,1.8-19.3,4.7-25.8c0.4,0.4,0.8,0.8,1.2,1.3C89.7,43.5,88,52.1,88,61.6c0,9.5,1.7,18.1,4.3,24.3
			C92,86.5,91.6,86.9,91.2,87.3z M79.7,16.4c-10.8,0-19.6,20.3-19.6,45.2s8.8,45.2,19.6,45.2c4.7,0,9.2-3.9,12.6-10.6
			c0,0,0,0,0.1,0.1c-3.8,8.8-8.9,14-14.4,14c-11.4,0-20.6-21.8-20.6-48.6S66.7,13,78,13c5.5,0,10.7,5.2,14.5,14c0,0,0,0-0.1,0.1
			C89,20.3,84.5,16.4,79.7,16.4z M92.8,85.3c-2.5-6.1-4.1-14.4-4.1-23.6c0-9.3,1.6-17.7,4.1-23.8c0.4,0.5,0.7,1.1,1.1,1.7
			c-2.3,5.9-3.7,13.6-3.7,22.1c0,8.4,1.3,16.1,3.6,21.9C93.5,84.2,93.2,84.7,92.8,85.3z M91,61.6c0-8.1,1.3-15.6,3.4-21.3
			c0,0.1,0.1,0.2,0.1,0.3c0.3,0.6,0.6,1.2,0.8,1.9c-1.8,5.3-2.8,11.9-2.8,19.1c0,7,1,13.5,2.7,18.8c-0.3,0.8-0.6,1.5-1,2.2
			C92.2,77,91,69.7,91,61.6z M95.1,92.9c0.3-0.2,0.7-0.4,1-0.6c0,0.1,0.1,0.1,0.1,0.2c-0.4,0.3-0.8,0.5-1.2,0.7
			C95,93,95.1,93,95.1,92.9z M95.3,93.9c0.5-0.2,1-0.5,1.4-0.8c0,0,0.1,0.1,0.1,0.1C96.3,93.4,95.8,93.7,95.3,93.9
			C95.3,93.9,95.3,93.9,95.3,93.9z M96.4,94.4c0.4-0.2,0.7-0.4,1.1-0.6c0,0,0,0,0.1,0.1C97.1,94,96.7,94.2,96.4,94.4z M97.5,94.8
			c0.2-0.1,0.5-0.3,0.7-0.4c0,0,0,0,0,0C98,94.6,97.8,94.7,97.5,94.8z M98.9,94C98.9,94,98.8,94,98.9,94c0.3-0.4,0.7-0.7,1.1-1.1
			c0,0,0.1,0.1,0.1,0.1C99.7,93.4,99.3,93.7,98.9,94z M99.7,94.5c0.4-0.3,0.8-0.6,1.1-1c0,0,0.1,0,0.1,0.1
			C100.6,94,100.2,94.3,99.7,94.5C99.8,94.6,99.7,94.6,99.7,94.5z M100.8,95C100.8,95,100.8,95,100.8,95c0.3-0.3,0.7-0.6,1-0.9
			c0,0,0,0,0.1,0C101.5,94.5,101.1,94.8,100.8,95z M102,95.3c0.3-0.2,0.6-0.5,0.9-0.8c0,0,0,0,0,0C102.7,94.8,102.4,95.1,102,95.3z
			 M102.5,93.6C102.4,93.6,102.4,93.6,102.5,93.6c0.2-0.4,0.5-0.7,0.8-1.1c0,0,0.1,0,0.1,0.1C103.1,92.9,102.8,93.3,102.5,93.6z
			 M103.5,93.9c0.3-0.3,0.5-0.6,0.8-0.9c0,0,0.1,0,0.1,0C104.1,93.3,103.8,93.6,103.5,93.9C103.5,93.9,103.5,93.9,103.5,93.9z
			 M103.9,95c0.5-0.5,1-1.1,1.5-1.8c0,0,0,0,0,0C105,93.9,104.5,94.5,103.9,95z M104.8,92.3C104.8,92.3,104.8,92.3,104.8,92.3
			c0.2-0.4,0.4-0.7,0.6-1.1c0,0,0,0,0.1,0C105.3,91.7,105.1,92,104.8,92.3z M105,90.2c0,0-0.1,0-0.1-0.1c0.2-0.4,0.5-0.8,0.7-1.2
			c0,0,0.1,0.1,0.1,0.1C105.4,89.4,105.2,89.8,105,90.2z M105.8,90.7c0.2-0.4,0.4-0.7,0.6-1.1c0,0,0,0,0.1,0
			C106.4,90,106.1,90.3,105.8,90.7C105.9,90.7,105.9,90.7,105.8,90.7z M106,92.5C106,92.5,106,92.5,106,92.5
			c0.1-0.3,0.3-0.6,0.5-0.9c0,0,0,0,0,0C106.4,92,106.2,92.3,106,92.5z M106.3,87.7c0,0,0-0.1-0.1-0.1c0.1-0.3,0.3-0.6,0.4-0.8
			c0,0,0,0.1,0.1,0.1C106.6,87.1,106.4,87.4,106.3,87.7z M107.6,92.1c0.1-0.1,0.1-0.2,0.2-0.3c0,0,0,0,0,0
			C107.7,91.9,107.6,92,107.6,92.1z M107.9,89.4C107.9,89.4,107.8,89.4,107.9,89.4c0-0.1,0-0.1,0.1-0.2c0,0,0,0,0,0
			C107.9,89.2,107.9,89.3,107.9,89.4z M108.2,91.1C108.1,91.1,108.1,91.1,108.2,91.1c0,0,0-0.1,0.1-0.1c0,0,0,0,0,0
			C108.2,91,108.2,91,108.2,91.1z M107.7,87.3C107.6,87.3,107.6,87.2,107.7,87.3c0.1-0.5,0.3-1,0.5-1.4c0,0,0,0.1,0,0.1
			C108,86.4,107.9,86.9,107.7,87.3z M108.6,90.3C108.6,90.3,108.6,90.3,108.6,90.3C108.6,90.3,108.6,90.3,108.6,90.3
			C108.6,90.3,108.6,90.3,108.6,90.3C108.6,90.3,108.6,90.3,108.6,90.3z M108.3,88.5C108.3,88.4,108.3,88.4,108.3,88.5
			c0.1-0.4,0.3-0.8,0.5-1.1c0,0,0,0,0,0C108.6,87.7,108.5,88.1,108.3,88.5z M109,89.5C109,89.5,109,89.5,109,89.5
			c0.1-0.3,0.3-0.6,0.4-0.9c0,0,0,0,0,0C109.3,89,109.1,89.2,109,89.5z M109.2,86.5C109.2,86.5,109.2,86.4,109.2,86.5
			c0.2-0.6,0.4-1.2,0.6-1.8c0,0,0,0,0,0.1C109.6,85.3,109.4,85.9,109.2,86.5z M109.8,87.8c0.2-0.5,0.4-1,0.6-1.5c0,0,0,0,0,0
			C110.2,86.8,110,87.3,109.8,87.8C109.8,87.8,109.8,87.8,109.8,87.8z M110.6,91.6c-0.2-0.2-0.4-0.5-0.6-0.8
			c0.1-0.2,0.2-0.4,0.3-0.6c0.3,0.6,0.6,1.1,0.9,1.6C111,91.8,110.8,91.7,110.6,91.6z M111.8,92.8C111.8,92.8,111.8,92.8,111.8,92.8
			C111.8,92.8,111.8,92.8,111.8,92.8C111.8,92.8,111.8,92.8,111.8,92.8z M110.6,89.5c0.2-0.4,0.4-0.8,0.6-1.2
			c0.6,1.4,1.2,2.7,1.8,3.8c0,0,0,0,0,0c-0.3,0-0.5,0-0.8-0.1C111.6,91.3,111.1,90.4,110.6,89.5z M113.7,94c-0.3-0.4-0.7-0.7-1-1.2
			c0.1,0,0.1,0,0.2,0c0.1,0,0.3,0,0.4,0c0.3,0.5,0.6,1,0.9,1.4C114.1,94.2,113.9,94.1,113.7,94z M114.1,92.8
			c0.3-0.1,0.6-0.1,0.8-0.2c0.4,0.7,0.7,1.4,1.1,2.1c-0.3,0-0.5,0-0.8-0.1C114.9,94,114.5,93.4,114.1,92.8z M116.9,96.5
			c-0.3-0.3-0.6-0.7-0.9-1.1c0.2,0,0.3,0,0.5,0c0,0,0.1,0,0.1,0c0.3,0.4,0.5,0.9,0.8,1.3C117.2,96.6,117,96.5,116.9,96.5z M118.4,97
			c-0.4-0.5-0.8-1.1-1.1-1.7c0.3,0,0.5-0.1,0.8-0.2c0.3,0.7,0.7,1.3,1.1,1.9C118.9,97.1,118.7,97.1,118.4,97z M120,98.9
			c-0.3-0.3-0.6-0.6-0.9-1c0.2,0,0.3,0,0.5,0c0.2,0.4,0.5,0.7,0.7,1.1C120.2,99,120.1,98.9,120,98.9z M120.4,97.9
			c0.9-0.1,1.8-0.3,2.7-0.7c0.7,0.9,1.3,1.6,2,2.3c-0.6,0.2-1.2,0.3-1.8,0.3c-0.6,0-1.2-0.1-1.8-0.2C121.2,99,120.8,98.4,120.4,97.9
			z M122.3,100.4c0.4,0.1,0.7,0.1,1.1,0.1c0.8,0,1.7-0.2,2.5-0.4c1,0.8,2.1,1.5,3.2,1.9c-0.7,0.2-1.4,0.3-2.2,0.3
			c-1.3,0-2.5-0.3-3.7-1C122.8,101,122.6,100.7,122.3,100.4z M134.1,103.8c-1.2,0.6-2.5,0.9-3.8,0.9c-1.9,0-3.8-0.7-5.6-2.1
			c0.7,0.2,1.4,0.3,2.1,0.3c1.1,0,2.3-0.3,3.4-0.7c0.5,0.1,1,0.2,1.6,0.2c3.2,0,6.2-1.9,8.8-5.4
			C138.6,100.3,136.4,102.6,134.1,103.8z M131.8,101.6c-0.1,0-0.3,0-0.4,0c1-0.6,2-1.4,3-2.4c2.6-0.4,5.1-2.2,7.3-5.3
			C138.8,98.8,135.4,101.6,131.8,101.6z M141.8,92.2C141.8,92.2,141.8,92.2,141.8,92.2c-1.9,3.3-4.2,5.4-6.7,6.1
			c0.6-0.7,1.2-1.6,1.8-2.4C138.6,95.2,140.3,94,141.8,92.2C141.8,92.1,141.8,92.2,141.8,92.2z M141.3,91.6
			c-1.2,1.5-2.4,2.5-3.7,3.1c0.4-0.7,0.8-1.4,1.2-2.2c0.8-0.3,1.5-0.7,2.2-1.3C141.1,91.3,141.2,91.5,141.3,91.6z M141.6,31
			c-1.4-1.7-3-2.8-4.6-3.4c-0.6-0.9-1.1-1.7-1.7-2.5c2.3,0.7,4.5,2.7,6.5,5.7C141.7,30.9,141.7,31,141.6,31z"/>
	</g>
</g>
</svg>
